<svg width="31" height="31" viewBox="0 0 31 31" fill="none" xmlns="http://www.w3.org/2000/svg">
<rect width="31" height="31" fill="#736CC2"/>
<path d="M11.2896 23V8.45455H17.0282C18.1315 8.45455 19.0713 8.66525 19.8478 9.08665C20.6243 9.50331 21.2162 10.0833 21.6234 10.8267C22.0353 11.5653 22.2413 12.4176 22.2413 13.3835C22.2413 14.3494 22.033 15.2017 21.6163 15.9403C21.1996 16.679 20.5959 17.2543 19.8052 17.6662C19.0192 18.0781 18.0675 18.2841 16.9501 18.2841H13.2924V15.8196H16.4529C17.0448 15.8196 17.5325 15.7178 17.916 15.5142C18.3043 15.3059 18.5931 15.0194 18.7825 14.6548C18.9766 14.2855 19.0737 13.8617 19.0737 13.3835C19.0737 12.9006 18.9766 12.4792 18.7825 12.1193C18.5931 11.7547 18.3043 11.473 17.916 11.2741C17.5278 11.0705 17.0353 10.9688 16.4387 10.9688H14.3649V23H11.2896Z" fill="white"/>
</svg>
