<svg width="584" height="202" viewBox="0 0 584 202" fill="none" xmlns="http://www.w3.org/2000/svg">
<path d="M7.12199 4.45455V19H5.36062V6.30114H5.2754L1.72426 8.65909V6.86932L5.36062 4.45455H7.12199ZM16.0495 19.1989C14.9795 19.1989 14.068 18.9077 13.3152 18.3253C12.5623 17.7382 11.987 16.8883 11.5893 15.7756C11.1916 14.6581 10.9927 13.3087 10.9927 11.7273C10.9927 10.1553 11.1916 8.81297 11.5893 7.70028C11.9918 6.58286 12.5694 5.73059 13.3223 5.14347C14.0798 4.55161 14.9889 4.25568 16.0495 4.25568C17.1102 4.25568 18.0169 4.55161 18.7697 5.14347C19.5273 5.73059 20.1049 6.58286 20.5027 7.70028C20.9051 8.81297 21.1064 10.1553 21.1064 11.7273C21.1064 13.3087 20.9075 14.6581 20.5098 15.7756C20.112 16.8883 19.5368 17.7382 18.7839 18.3253C18.0311 18.9077 17.1196 19.1989 16.0495 19.1989ZM16.0495 17.6364C17.1102 17.6364 17.934 17.125 18.5211 16.1023C19.1083 15.0795 19.4018 13.6212 19.4018 11.7273C19.4018 10.4678 19.2669 9.39536 18.997 8.50994C18.7318 7.62453 18.3483 6.94981 17.8464 6.4858C17.3493 6.02178 16.7503 5.78977 16.0495 5.78977C14.9984 5.78977 14.1769 6.30824 13.5851 7.34517C12.9932 8.37737 12.6973 9.83807 12.6973 11.7273C12.6973 12.9867 12.8298 14.0568 13.095 14.9375C13.3602 15.8182 13.7413 16.4882 14.2385 16.9474C14.7404 17.4067 15.3441 17.6364 16.0495 17.6364ZM28.5495 19.1989C27.4795 19.1989 26.568 18.9077 25.8152 18.3253C25.0623 17.7382 24.487 16.8883 24.0893 15.7756C23.6916 14.6581 23.4927 13.3087 23.4927 11.7273C23.4927 10.1553 23.6916 8.81297 24.0893 7.70028C24.4918 6.58286 25.0694 5.73059 25.8223 5.14347C26.5798 4.55161 27.4889 4.25568 28.5495 4.25568C29.6102 4.25568 30.5169 4.55161 31.2697 5.14347C32.0273 5.73059 32.6049 6.58286 33.0027 7.70028C33.4051 8.81297 33.6064 10.1553 33.6064 11.7273C33.6064 13.3087 33.4075 14.6581 33.0098 15.7756C32.612 16.8883 32.0368 17.7382 31.2839 18.3253C30.5311 18.9077 29.6196 19.1989 28.5495 19.1989ZM28.5495 17.6364C29.6102 17.6364 30.434 17.125 31.0211 16.1023C31.6083 15.0795 31.9018 13.6212 31.9018 11.7273C31.9018 10.4678 31.7669 9.39536 31.497 8.50994C31.2318 7.62453 30.8483 6.94981 30.3464 6.4858C29.8493 6.02178 29.2503 5.78977 28.5495 5.78977C27.4984 5.78977 26.6769 6.30824 26.0851 7.34517C25.4932 8.37737 25.1973 9.83807 25.1973 11.7273C25.1973 12.9867 25.3298 14.0568 25.595 14.9375C25.8602 15.8182 26.2413 16.4882 26.7385 16.9474C27.2404 17.4067 27.8441 17.6364 28.5495 17.6364ZM7.91212 67L14.4178 54.1307V54.017H6.9178V52.4545H16.236V54.1023L9.75871 67H7.91212ZM23.2335 67.1989C22.4002 67.1989 21.6497 67.0331 20.9821 66.7017C20.3145 66.3703 19.7794 65.9157 19.377 65.3381C18.9745 64.7604 18.7543 64.1023 18.7164 63.3636H20.421C20.4873 64.0218 20.7856 64.5663 21.3159 64.9972C21.8509 65.4233 22.4901 65.6364 23.2335 65.6364C23.8301 65.6364 24.3604 65.4967 24.8244 65.2173C25.2932 64.938 25.6601 64.5545 25.9253 64.0668C26.1951 63.5743 26.3301 63.018 26.3301 62.3977C26.3301 61.7633 26.1904 61.1974 25.9111 60.7003C25.6364 60.1984 25.2576 59.803 24.7747 59.5142C24.2917 59.2254 23.7401 59.0786 23.1199 59.0739C22.6748 59.0691 22.2179 59.1378 21.7491 59.2798C21.2804 59.4171 20.8945 59.5947 20.5914 59.8125L18.9437 59.6136L19.8244 52.4545H27.3812V54.017H21.3017L20.7903 58.3068H20.8755C21.1738 58.0701 21.5479 57.8736 21.9977 57.7173C22.4475 57.5611 22.9163 57.483 23.4039 57.483C24.2941 57.483 25.0872 57.696 25.7832 58.1222C26.484 58.5436 27.0332 59.1212 27.4309 59.8551C27.8334 60.589 28.0346 61.4271 28.0346 62.3693C28.0346 63.2973 27.8263 64.1259 27.4096 64.8551C26.9977 65.5795 26.4295 66.1525 25.7051 66.5739C24.9807 66.9905 24.1568 67.1989 23.2335 67.1989ZM11.3683 115.199C10.5349 115.199 9.78445 115.033 9.11684 114.702C8.44923 114.37 7.91419 113.916 7.51173 113.338C7.10926 112.76 6.88909 112.102 6.85121 111.364H8.55576C8.62205 112.022 8.92034 112.566 9.45065 112.997C9.98568 113.423 10.6249 113.636 11.3683 113.636C11.9649 113.636 12.4952 113.497 12.9592 113.217C13.4279 112.938 13.7949 112.554 14.06 112.067C14.3299 111.574 14.4649 111.018 14.4649 110.398C14.4649 109.763 14.3252 109.197 14.0458 108.7C13.7712 108.198 13.3924 107.803 12.9095 107.514C12.4265 107.225 11.8749 107.079 11.2546 107.074C10.8095 107.069 10.3526 107.138 9.88388 107.28C9.41513 107.417 9.02924 107.595 8.72621 107.812L7.07849 107.614L7.95917 100.455H15.516V102.017H9.43644L8.92508 106.307H9.01031C9.3086 106.07 9.68265 105.874 10.1325 105.717C10.5823 105.561 11.051 105.483 11.5387 105.483C12.4289 105.483 13.222 105.696 13.918 106.122C14.6187 106.544 15.168 107.121 15.5657 107.855C15.9682 108.589 16.1694 109.427 16.1694 110.369C16.1694 111.297 15.9611 112.126 15.5444 112.855C15.1325 113.58 14.5643 114.152 13.8399 114.574C13.1154 114.991 12.2916 115.199 11.3683 115.199ZM23.7351 115.199C22.665 115.199 21.7536 114.908 21.0007 114.325C20.2479 113.738 19.6726 112.888 19.2749 111.776C18.8771 110.658 18.6783 109.309 18.6783 107.727C18.6783 106.155 18.8771 104.813 19.2749 103.7C19.6773 102.583 20.255 101.731 21.0078 101.143C21.7654 100.552 22.6745 100.256 23.7351 100.256C24.7957 100.256 25.7024 100.552 26.4553 101.143C27.2128 101.731 27.7905 102.583 28.1882 103.7C28.5907 104.813 28.7919 106.155 28.7919 107.727C28.7919 109.309 28.593 110.658 28.1953 111.776C27.7976 112.888 27.2223 113.738 26.4695 114.325C25.7166 114.908 24.8052 115.199 23.7351 115.199ZM23.7351 113.636C24.7957 113.636 25.6196 113.125 26.2067 112.102C26.7938 111.08 27.0874 109.621 27.0874 107.727C27.0874 106.468 26.9524 105.395 26.6825 104.51C26.4174 103.625 26.0339 102.95 25.532 102.486C25.0348 102.022 24.4359 101.79 23.7351 101.79C22.684 101.79 21.8625 102.308 21.2706 103.345C20.6787 104.377 20.3828 105.838 20.3828 107.727C20.3828 108.987 20.5154 110.057 20.7805 110.938C21.0457 111.818 21.4269 112.488 21.924 112.947C22.4259 113.407 23.0296 113.636 23.7351 113.636ZM7.01812 163V161.722L11.8193 156.466C12.3827 155.85 12.8467 155.315 13.2113 154.861C13.5759 154.402 13.8458 153.971 14.021 153.568C14.2009 153.161 14.2908 152.735 14.2908 152.29C14.2908 151.778 14.1677 151.336 13.9215 150.962C13.68 150.588 13.3486 150.299 12.9272 150.095C12.5058 149.892 12.0323 149.79 11.5068 149.79C10.948 149.79 10.4604 149.906 10.0437 150.138C9.63175 150.365 9.31215 150.685 9.08488 151.097C8.86234 151.509 8.75107 151.991 8.75107 152.545H7.07494C7.07494 151.693 7.27143 150.945 7.66442 150.301C8.05742 149.657 8.59246 149.155 9.26954 148.795C9.95136 148.436 10.716 148.256 11.5636 148.256C12.4158 148.256 13.1711 148.436 13.8292 148.795C14.4873 149.155 15.0034 149.641 15.3775 150.251C15.7515 150.862 15.9386 151.542 15.9386 152.29C15.9386 152.825 15.8415 153.348 15.6474 153.859C15.458 154.366 15.1265 154.932 14.6531 155.557C14.1843 156.177 13.5333 156.935 12.6999 157.83L9.43289 161.324V161.438H16.1943V163H7.01812ZM23.6729 163.199C22.8396 163.199 22.0891 163.033 21.4215 162.702C20.7539 162.37 20.2189 161.916 19.8164 161.338C19.414 160.76 19.1938 160.102 19.1559 159.364H20.8604C20.9267 160.022 21.225 160.566 21.7553 160.997C22.2904 161.423 22.9296 161.636 23.6729 161.636C24.2695 161.636 24.7998 161.497 25.2639 161.217C25.7326 160.938 26.0996 160.554 26.3647 160.067C26.6346 159.574 26.7695 159.018 26.7695 158.398C26.7695 157.763 26.6299 157.197 26.3505 156.7C26.0759 156.198 25.6971 155.803 25.2141 155.514C24.7312 155.225 24.1796 155.079 23.5593 155.074C23.1142 155.069 22.6573 155.138 22.1886 155.28C21.7198 155.417 21.3339 155.595 21.0309 155.812L19.3832 155.614L20.2639 148.455H27.8207V150.017H21.7411L21.2298 154.307H21.315C21.6133 154.07 21.9873 153.874 22.4372 153.717C22.887 153.561 23.3557 153.483 23.8434 153.483C24.7336 153.483 25.5266 153.696 26.2227 154.122C26.9234 154.544 27.4727 155.121 27.8704 155.855C28.2729 156.589 28.4741 157.427 28.4741 158.369C28.4741 159.297 28.2658 160.126 27.8491 160.855C27.4372 161.58 26.869 162.152 26.1445 162.574C25.4201 162.991 24.5962 163.199 23.6729 163.199Z" fill="black"/>
<path d="M57.6904 199.453H53.2018V184.908H57.8893C59.3003 184.908 60.5077 185.199 61.5115 185.781C62.5152 186.359 63.2847 187.19 63.8197 188.274C64.3547 189.354 64.6222 190.647 64.6222 192.152C64.6222 193.667 64.3524 194.972 63.8126 196.066C63.2728 197.155 62.4868 197.993 61.4546 198.58C60.4224 199.162 59.1677 199.453 57.6904 199.453ZM54.9632 197.891H57.5768C58.7794 197.891 59.7761 197.659 60.5669 197.195C61.3576 196.731 61.9471 196.07 62.3353 195.213C62.7236 194.356 62.9177 193.336 62.9177 192.152C62.9177 190.978 62.7259 189.967 62.3424 189.12C61.9589 188.267 61.386 187.614 60.6237 187.159C59.8614 186.7 58.912 186.47 57.7757 186.47H54.9632V197.891ZM112.577 184.908H114.679L119.622 196.982H119.793L124.736 184.908H126.838V199.453H125.19V188.402H125.048L120.503 199.453H118.912L114.367 188.402H114.225V199.453H112.577V184.908ZM175.37 184.908H177.472L182.415 196.982H182.586L187.529 184.908H189.631V199.453H187.983V188.402H187.841L183.296 199.453H181.705L177.16 188.402H177.017V199.453H175.37V184.908ZM238.163 184.908H240.265L245.208 196.982H245.379L250.322 184.908H252.424V199.453H250.776V188.402H250.634L246.089 199.453H244.498L239.953 188.402H239.81V199.453H238.163V184.908ZM313.228 192.181C313.228 193.715 312.951 195.04 312.397 196.158C311.843 197.275 311.084 198.137 310.118 198.743C309.152 199.349 308.049 199.652 306.808 199.652C305.567 199.652 304.464 199.349 303.498 198.743C302.532 198.137 301.772 197.275 301.218 196.158C300.665 195.04 300.388 193.715 300.388 192.181C300.388 190.647 300.665 189.321 301.218 188.203C301.772 187.086 302.532 186.224 303.498 185.618C304.464 185.012 305.567 184.709 306.808 184.709C308.049 184.709 309.152 185.012 310.118 185.618C311.084 186.224 311.843 187.086 312.397 188.203C312.951 189.321 313.228 190.647 313.228 192.181ZM311.524 192.181C311.524 190.921 311.313 189.858 310.892 188.992C310.475 188.125 309.909 187.469 309.194 187.024C308.484 186.579 307.689 186.357 306.808 186.357C305.927 186.357 305.129 186.579 304.415 187.024C303.704 187.469 303.138 188.125 302.717 188.992C302.3 189.858 302.092 190.921 302.092 192.181C302.092 193.44 302.3 194.503 302.717 195.37C303.138 196.236 303.704 196.892 304.415 197.337C305.129 197.782 305.927 198.005 306.808 198.005C307.689 198.005 308.484 197.782 309.194 197.337C309.909 196.892 310.475 196.236 310.892 195.37C311.313 194.503 311.524 193.44 311.524 192.181ZM361.19 199.453V184.908H366.105C367.246 184.908 368.179 185.114 368.903 185.526C369.632 185.933 370.172 186.485 370.522 187.181C370.873 187.877 371.048 188.653 371.048 189.51C371.048 190.367 370.873 191.146 370.522 191.847C370.177 192.548 369.642 193.106 368.917 193.523C368.193 193.935 367.265 194.141 366.133 194.141H362.611V192.578H366.076C366.858 192.578 367.485 192.443 367.959 192.174C368.432 191.904 368.775 191.539 368.988 191.08C369.206 190.616 369.315 190.093 369.315 189.51C369.315 188.928 369.206 188.407 368.988 187.948C368.775 187.488 368.43 187.129 367.951 186.868C367.473 186.603 366.839 186.47 366.048 186.47H362.951V199.453H361.19ZM418.885 199.453V184.908H423.8C424.937 184.908 425.869 185.102 426.598 185.49C427.328 185.874 427.867 186.402 428.218 187.074C428.568 187.746 428.743 188.511 428.743 189.368C428.743 190.225 428.568 190.985 428.218 191.648C427.867 192.311 427.33 192.832 426.606 193.21C425.881 193.585 424.955 193.772 423.829 193.772H419.851V192.181H423.772C424.548 192.181 425.173 192.067 425.647 191.84C426.125 191.612 426.471 191.29 426.684 190.874C426.901 190.452 427.01 189.951 427.01 189.368C427.01 188.786 426.901 188.277 426.684 187.841C426.466 187.406 426.118 187.069 425.64 186.833C425.161 186.591 424.529 186.47 423.743 186.47H420.647V199.453H418.885ZM425.732 192.919L429.312 199.453H427.266L423.743 192.919H425.732ZM486.224 184.908H487.985V194.539C487.985 195.533 487.751 196.421 487.282 197.202C486.818 197.978 486.162 198.592 485.315 199.041C484.467 199.487 483.473 199.709 482.332 199.709C481.191 199.709 480.196 199.487 479.349 199.041C478.501 198.592 477.843 197.978 477.374 197.202C476.91 196.421 476.678 195.533 476.678 194.539V184.908H478.44V194.397C478.44 195.107 478.596 195.739 478.908 196.293C479.221 196.842 479.666 197.275 480.244 197.593C480.826 197.905 481.522 198.061 482.332 198.061C483.141 198.061 483.837 197.905 484.42 197.593C485.002 197.275 485.447 196.842 485.755 196.293C486.068 195.739 486.224 195.107 486.224 194.397V184.908ZM537.099 184.908L541.417 197.152H541.588L545.906 184.908H547.753L542.412 199.453H540.593L535.253 184.908H537.099Z" fill="black"/>
<path d="M51.4404 98.5229C51.4404 95.1806 54.1499 92.4711 57.4922 92.4711V92.4711C60.8346 92.4711 63.544 95.1806 63.544 98.5229V164.293H51.4404V98.5229Z" fill="#836A9D"/>
<path d="M113.976 73.3851C113.976 70.0428 116.685 67.3333 120.028 67.3333V67.3333C123.37 67.3333 126.079 70.0428 126.079 73.3851V164.293H113.976V73.3851Z" fill="#836A9D"/>
<path d="M239.046 72.4874C239.046 69.145 241.756 66.4355 245.098 66.4355V66.4355C248.441 66.4355 251.15 69.145 251.15 72.4874V164.293H239.046V72.4874Z" fill="#836A9D"/>
<path d="M302.59 99.4207C302.59 96.0784 305.3 93.3689 308.642 93.3689V93.3689C311.984 93.3689 314.694 96.0784 314.694 99.4207V165.191H302.59V99.4207Z" fill="#836A9D"/>
<path d="M362.1 68.8962C362.1 65.5539 364.809 62.8444 368.152 62.8444V62.8444C371.494 62.8444 374.203 65.5539 374.203 68.8962V165.191H362.1V68.8962Z" fill="#836A9D"/>
<path d="M419.592 40.1673C419.592 36.825 422.302 34.1155 425.644 34.1155V34.1155C428.986 34.1155 431.696 36.825 431.696 40.1673V165.191H419.592V40.1673Z" fill="#836A9D"/>
<path d="M479.102 66.2029C479.102 62.8606 481.811 60.1511 485.153 60.1511V60.1511C488.496 60.1511 491.205 62.8606 491.205 66.2029V164.293H479.102V66.2029Z" fill="#836A9D"/>
<path d="M538.611 41.9629C538.611 38.6206 541.32 35.9111 544.663 35.9111V35.9111C548.005 35.9111 550.714 38.6206 550.714 41.9629V165.191H538.611V41.9629Z" fill="#836A9D"/>
<path d="M176.511 51.8385C176.511 48.4962 179.22 45.7867 182.563 45.7867V45.7867C185.905 45.7867 188.615 48.4962 188.615 51.8385V164.293H176.511V51.8385Z" fill="#836A9D"/>
<line x1="36.3103" y1="164.229" x2="584" y2="164.229" stroke="black"/>
</svg>
