<svg width="209" height="218" viewBox="0 0 209 218" fill="none" xmlns="http://www.w3.org/2000/svg">
<circle cx="101" cy="68" r="60" stroke="#B47AB5" stroke-opacity="0.2" stroke-width="15" stroke-linejoin="round"/>
<path d="M161 68C161 52.087 154.679 36.8258 143.426 25.5736C132.174 14.3214 116.913 8 101 8C85.087 8 69.8258 14.3214 58.5736 25.5736C47.3214 36.8258 41 52.087 41 68" stroke="#B47AB5" stroke-width="15" stroke-linejoin="round"/>
<path d="M81.2727 82.3182C79.7727 82.3182 78.4356 82.0606 77.2614 81.5455C76.0947 81.0303 75.1667 80.3144 74.4773 79.3977C73.7955 78.4735 73.4242 77.4015 73.3636 76.1818H76.2273C76.2879 76.9318 76.5455 77.5795 77 78.125C77.4545 78.6629 78.0492 79.0795 78.7841 79.375C79.5189 79.6705 80.3333 79.8182 81.2273 79.8182C82.2273 79.8182 83.1136 79.6439 83.8864 79.2955C84.6591 78.947 85.2652 78.4621 85.7045 77.8409C86.1439 77.2197 86.3636 76.5 86.3636 75.6818C86.3636 74.8258 86.1515 74.072 85.7273 73.4205C85.303 72.7614 84.6818 72.2462 83.8636 71.875C83.0455 71.5038 82.0455 71.3182 80.8636 71.3182H79V68.8182H80.8636C81.7879 68.8182 82.5985 68.6515 83.2955 68.3182C84 67.9848 84.5492 67.5152 84.9432 66.9091C85.3447 66.303 85.5455 65.5909 85.5455 64.7727C85.5455 63.9848 85.3712 63.2992 85.0227 62.7159C84.6742 62.1326 84.1818 61.678 83.5455 61.3523C82.9167 61.0265 82.1742 60.8636 81.3182 60.8636C80.5152 60.8636 79.7576 61.0114 79.0455 61.3068C78.3409 61.5947 77.7652 62.0152 77.3182 62.5682C76.8712 63.1136 76.6288 63.7727 76.5909 64.5455H73.8636C73.9091 63.3258 74.2765 62.2576 74.9659 61.3409C75.6553 60.4167 76.5568 59.697 77.6705 59.1818C78.7917 58.6667 80.0227 58.4091 81.3636 58.4091C82.803 58.4091 84.0379 58.7008 85.0682 59.2841C86.0985 59.8598 86.8902 60.6212 87.4432 61.5682C87.9962 62.5152 88.2727 63.5379 88.2727 64.6364C88.2727 65.947 87.928 67.0644 87.2386 67.9886C86.5568 68.9129 85.6288 69.553 84.4545 69.9091V70.0909C85.9242 70.3333 87.072 70.9583 87.8977 71.9659C88.7235 72.9659 89.1364 74.2045 89.1364 75.6818C89.1364 76.947 88.7917 78.0833 88.1023 79.0909C87.4205 80.0909 86.4886 80.8788 85.3068 81.4545C84.125 82.0303 82.7803 82.3182 81.2727 82.3182ZM101.057 82.3182C99.7235 82.3182 98.5227 82.053 97.4545 81.5227C96.3864 80.9924 95.5303 80.2652 94.8864 79.3409C94.2424 78.4167 93.8902 77.3636 93.8295 76.1818H96.5568C96.6629 77.2348 97.1402 78.1061 97.9886 78.7955C98.8447 79.4773 99.8674 79.8182 101.057 79.8182C102.011 79.8182 102.86 79.5947 103.602 79.1477C104.352 78.7008 104.939 78.0871 105.364 77.3068C105.795 76.5189 106.011 75.6288 106.011 74.6364C106.011 73.6212 105.788 72.7159 105.341 71.9205C104.902 71.1174 104.295 70.4848 103.523 70.0227C102.75 69.5606 101.867 69.3258 100.875 69.3182C100.163 69.3106 99.4318 69.4205 98.6818 69.6477C97.9318 69.8674 97.3144 70.1515 96.8295 70.5L94.1932 70.1818L95.6023 58.7273H107.693V61.2273H97.9659L97.1477 68.0909H97.2841C97.7614 67.7121 98.3598 67.3977 99.0795 67.1477C99.7992 66.8977 100.549 66.7727 101.33 66.7727C102.754 66.7727 104.023 67.1136 105.136 67.7955C106.258 68.4697 107.136 69.3939 107.773 70.5682C108.417 71.7424 108.739 73.0833 108.739 74.5909C108.739 76.0758 108.405 77.4015 107.739 78.5682C107.08 79.7273 106.17 80.6439 105.011 81.3182C103.852 81.9848 102.534 82.3182 101.057 82.3182ZM125.116 77.6364V76.4091C125.116 75.5606 125.291 74.7841 125.639 74.0795C125.995 73.3674 126.51 72.7992 127.185 72.375C127.866 71.9432 128.692 71.7273 129.662 71.7273C130.647 71.7273 131.473 71.9432 132.139 72.375C132.806 72.7992 133.31 73.3674 133.651 74.0795C133.991 74.7841 134.162 75.5606 134.162 76.4091V77.6364C134.162 78.4848 133.988 79.2652 133.639 79.9773C133.298 80.6818 132.791 81.25 132.116 81.6818C131.45 82.1061 130.632 82.3182 129.662 82.3182C128.677 82.3182 127.848 82.1061 127.173 81.6818C126.499 81.25 125.988 80.6818 125.639 79.9773C125.291 79.2652 125.116 78.4848 125.116 77.6364ZM127.435 76.4091V77.6364C127.435 78.3409 127.601 78.9735 127.935 79.5341C128.268 80.0871 128.844 80.3636 129.662 80.3636C130.457 80.3636 131.018 80.0871 131.344 79.5341C131.677 78.9735 131.844 78.3409 131.844 77.6364V76.4091C131.844 75.7045 131.685 75.0758 131.366 74.5227C131.048 73.9621 130.48 73.6818 129.662 73.6818C128.866 73.6818 128.295 73.9621 127.946 74.5227C127.605 75.0758 127.435 75.7045 127.435 76.4091ZM113.526 64.3182V63.0909C113.526 62.2424 113.7 61.4659 114.048 60.7614C114.404 60.0492 114.92 59.4811 115.594 59.0568C116.276 58.625 117.101 58.4091 118.071 58.4091C119.056 58.4091 119.882 58.625 120.548 59.0568C121.215 59.4811 121.719 60.0492 122.06 60.7614C122.401 61.4659 122.571 62.2424 122.571 63.0909V64.3182C122.571 65.1667 122.397 65.947 122.048 66.6591C121.707 67.3636 121.2 67.9318 120.526 68.3636C119.859 68.7879 119.041 69 118.071 69C117.086 69 116.257 68.7879 115.582 68.3636C114.908 67.9318 114.397 67.3636 114.048 66.6591C113.7 65.947 113.526 65.1667 113.526 64.3182ZM115.844 63.0909V64.3182C115.844 65.0227 116.01 65.6553 116.344 66.2159C116.677 66.7689 117.253 67.0455 118.071 67.0455C118.866 67.0455 119.427 66.7689 119.753 66.2159C120.086 65.6553 120.253 65.0227 120.253 64.3182V63.0909C120.253 62.3864 120.094 61.7576 119.776 61.2045C119.457 60.6439 118.889 60.3636 118.071 60.3636C117.276 60.3636 116.704 60.6439 116.355 61.2045C116.014 61.7576 115.844 62.3864 115.844 63.0909ZM114.389 82L130.389 58.7273H132.98L116.98 82H114.389Z" fill="black"/>
<path d="M53.4091 162V150.364H54.8182V160.75H60.2273V162H53.4091ZM65.7727 162.182C64.9848 162.182 64.2936 161.994 63.6989 161.619C63.108 161.244 62.6458 160.72 62.3125 160.045C61.983 159.371 61.8182 158.583 61.8182 157.682C61.8182 156.773 61.983 155.979 62.3125 155.301C62.6458 154.623 63.108 154.097 63.6989 153.722C64.2936 153.347 64.9848 153.159 65.7727 153.159C66.5606 153.159 67.25 153.347 67.8409 153.722C68.4356 154.097 68.8977 154.623 69.2273 155.301C69.5606 155.979 69.7273 156.773 69.7273 157.682C69.7273 158.583 69.5606 159.371 69.2273 160.045C68.8977 160.72 68.4356 161.244 67.8409 161.619C67.25 161.994 66.5606 162.182 65.7727 162.182ZM65.7727 160.977C66.3712 160.977 66.8636 160.824 67.25 160.517C67.6364 160.21 67.9223 159.807 68.108 159.307C68.2936 158.807 68.3864 158.265 68.3864 157.682C68.3864 157.098 68.2936 156.555 68.108 156.051C67.9223 155.547 67.6364 155.14 67.25 154.83C66.8636 154.519 66.3712 154.364 65.7727 154.364C65.1742 154.364 64.6818 154.519 64.2955 154.83C63.9091 155.14 63.6231 155.547 63.4375 156.051C63.2519 156.555 63.1591 157.098 63.1591 157.682C63.1591 158.265 63.2519 158.807 63.4375 159.307C63.6231 159.807 63.9091 160.21 64.2955 160.517C64.6818 160.824 65.1742 160.977 65.7727 160.977ZM71.7741 162V153.273H73.0696V154.591H73.1605C73.3196 154.159 73.6075 153.809 74.0241 153.54C74.4408 153.271 74.9105 153.136 75.4332 153.136C75.5317 153.136 75.6548 153.138 75.8026 153.142C75.9503 153.146 76.062 153.152 76.1378 153.159V154.523C76.0923 154.511 75.9882 154.494 75.8253 154.472C75.6662 154.445 75.4976 154.432 75.3196 154.432C74.8954 154.432 74.5166 154.521 74.1832 154.699C73.8537 154.873 73.5923 155.116 73.3991 155.426C73.2098 155.733 73.1151 156.083 73.1151 156.477V162H71.7741ZM81.1207 162.182C80.2798 162.182 79.5545 161.996 78.9446 161.625C78.3385 161.25 77.8707 160.727 77.5412 160.057C77.2154 159.383 77.0526 158.598 77.0526 157.705C77.0526 156.811 77.2154 156.023 77.5412 155.341C77.8707 154.655 78.3291 154.121 78.9162 153.739C79.5071 153.352 80.1965 153.159 80.9844 153.159C81.4389 153.159 81.8878 153.235 82.331 153.386C82.7741 153.538 83.1776 153.784 83.5412 154.125C83.9048 154.462 84.1946 154.909 84.4105 155.466C84.6264 156.023 84.7344 156.708 84.7344 157.523V158.091H78.0071V156.932H83.3707C83.3707 156.439 83.2723 156 83.0753 155.614C82.8821 155.227 82.6056 154.922 82.2457 154.699C81.8897 154.475 81.4692 154.364 80.9844 154.364C80.4503 154.364 79.9882 154.496 79.598 154.761C79.2116 155.023 78.9143 155.364 78.706 155.784C78.4976 156.205 78.3935 156.655 78.3935 157.136V157.909C78.3935 158.568 78.5071 159.127 78.7344 159.585C78.9654 160.04 79.2855 160.386 79.6946 160.625C80.1037 160.86 80.5791 160.977 81.1207 160.977C81.473 160.977 81.7912 160.928 82.0753 160.83C82.3632 160.727 82.6113 160.576 82.8196 160.375C83.0279 160.17 83.1889 159.917 83.3026 159.614L84.598 159.977C84.4616 160.417 84.2325 160.803 83.9105 161.136C83.5885 161.466 83.1908 161.723 82.7173 161.909C82.2438 162.091 81.7116 162.182 81.1207 162.182ZM86.7741 162V153.273H88.0696V154.636H88.1832C88.3651 154.17 88.6586 153.809 89.0639 153.551C89.4692 153.29 89.956 153.159 90.5241 153.159C91.0999 153.159 91.5791 153.29 91.9616 153.551C92.348 153.809 92.6491 154.17 92.8651 154.636H92.956C93.1795 154.186 93.5147 153.828 93.9616 153.562C94.4086 153.294 94.9446 153.159 95.5696 153.159C96.3499 153.159 96.9882 153.403 97.4844 153.892C97.9806 154.377 98.2287 155.133 98.2287 156.159V162H96.8878V156.159C96.8878 155.515 96.7116 155.055 96.3594 154.778C96.0071 154.502 95.5923 154.364 95.1151 154.364C94.5014 154.364 94.026 154.549 93.6889 154.92C93.3518 155.288 93.1832 155.754 93.1832 156.318V162H91.8196V156.023C91.8196 155.527 91.6586 155.127 91.3366 154.824C91.0147 154.517 90.5999 154.364 90.0923 154.364C89.7438 154.364 89.4181 154.456 89.1151 154.642C88.8158 154.828 88.5734 155.085 88.3878 155.415C88.206 155.741 88.1151 156.117 88.1151 156.545V162H86.7741ZM105.18 162V153.273H106.521V162H105.18ZM105.862 151.818C105.601 151.818 105.375 151.729 105.186 151.551C105 151.373 104.908 151.159 104.908 150.909C104.908 150.659 105 150.445 105.186 150.267C105.375 150.089 105.601 150 105.862 150C106.124 150 106.347 150.089 106.533 150.267C106.722 150.445 106.817 150.659 106.817 150.909C106.817 151.159 106.722 151.373 106.533 151.551C106.347 151.729 106.124 151.818 105.862 151.818ZM108.977 165.273V153.273H110.273V154.659H110.432C110.53 154.508 110.667 154.314 110.841 154.08C111.019 153.841 111.273 153.629 111.602 153.443C111.936 153.254 112.386 153.159 112.955 153.159C113.689 153.159 114.337 153.343 114.898 153.71C115.458 154.078 115.896 154.598 116.21 155.273C116.525 155.947 116.682 156.742 116.682 157.659C116.682 158.583 116.525 159.384 116.21 160.062C115.896 160.737 115.46 161.259 114.903 161.631C114.347 161.998 113.705 162.182 112.977 162.182C112.417 162.182 111.968 162.089 111.631 161.903C111.294 161.714 111.034 161.5 110.852 161.261C110.67 161.019 110.53 160.818 110.432 160.659H110.318V165.273H108.977ZM110.295 157.636C110.295 158.295 110.392 158.877 110.585 159.381C110.778 159.881 111.061 160.273 111.432 160.557C111.803 160.837 112.258 160.977 112.795 160.977C113.356 160.977 113.824 160.83 114.199 160.534C114.578 160.235 114.862 159.833 115.051 159.33C115.244 158.822 115.341 158.258 115.341 157.636C115.341 157.023 115.246 156.47 115.057 155.977C114.871 155.481 114.589 155.089 114.21 154.801C113.835 154.509 113.364 154.364 112.795 154.364C112.25 154.364 111.792 154.502 111.42 154.778C111.049 155.051 110.769 155.434 110.58 155.926C110.39 156.415 110.295 156.985 110.295 157.636ZM124.909 155.227L123.705 155.568C123.629 155.367 123.517 155.172 123.369 154.983C123.225 154.79 123.028 154.631 122.778 154.506C122.528 154.381 122.208 154.318 121.818 154.318C121.284 154.318 120.839 154.441 120.483 154.688C120.131 154.93 119.955 155.239 119.955 155.614C119.955 155.947 120.076 156.21 120.318 156.403C120.561 156.597 120.939 156.758 121.455 156.886L122.75 157.205C123.53 157.394 124.112 157.684 124.494 158.074C124.877 158.46 125.068 158.958 125.068 159.568C125.068 160.068 124.924 160.515 124.636 160.909C124.352 161.303 123.955 161.614 123.443 161.841C122.932 162.068 122.337 162.182 121.659 162.182C120.769 162.182 120.032 161.989 119.449 161.602C118.866 161.216 118.496 160.652 118.341 159.909L119.614 159.591C119.735 160.061 119.964 160.413 120.301 160.648C120.642 160.883 121.087 161 121.636 161C122.261 161 122.758 160.867 123.125 160.602C123.496 160.333 123.682 160.011 123.682 159.636C123.682 159.333 123.576 159.08 123.364 158.875C123.152 158.667 122.826 158.511 122.386 158.409L120.932 158.068C120.133 157.879 119.545 157.585 119.17 157.188C118.799 156.786 118.614 156.284 118.614 155.682C118.614 155.189 118.752 154.754 119.028 154.375C119.309 153.996 119.689 153.699 120.17 153.483C120.655 153.267 121.205 153.159 121.818 153.159C122.682 153.159 123.36 153.348 123.852 153.727C124.348 154.106 124.701 154.606 124.909 155.227ZM132.587 158.432V153.273H133.928V162H132.587V160.523H132.496C132.291 160.966 131.973 161.343 131.541 161.653C131.109 161.96 130.564 162.114 129.905 162.114C129.359 162.114 128.875 161.994 128.45 161.756C128.026 161.513 127.693 161.15 127.45 160.665C127.208 160.176 127.087 159.561 127.087 158.818V153.273H128.428V158.727C128.428 159.364 128.606 159.871 128.962 160.25C129.321 160.629 129.78 160.818 130.337 160.818C130.67 160.818 131.009 160.733 131.354 160.562C131.702 160.392 131.994 160.131 132.229 159.778C132.467 159.426 132.587 158.977 132.587 158.432ZM136.384 162V153.273H137.679V154.636H137.793C137.974 154.17 138.268 153.809 138.673 153.551C139.079 153.29 139.565 153.159 140.134 153.159C140.709 153.159 141.188 153.29 141.571 153.551C141.957 153.809 142.259 154.17 142.474 154.636H142.565C142.789 154.186 143.124 153.828 143.571 153.562C144.018 153.294 144.554 153.159 145.179 153.159C145.959 153.159 146.598 153.403 147.094 153.892C147.59 154.377 147.838 155.133 147.838 156.159V162H146.497V156.159C146.497 155.515 146.321 155.055 145.969 154.778C145.616 154.502 145.202 154.364 144.724 154.364C144.111 154.364 143.635 154.549 143.298 154.92C142.961 155.288 142.793 155.754 142.793 156.318V162H141.429V156.023C141.429 155.527 141.268 155.127 140.946 154.824C140.624 154.517 140.209 154.364 139.702 154.364C139.353 154.364 139.027 154.456 138.724 154.642C138.425 154.828 138.183 155.085 137.997 155.415C137.815 155.741 137.724 156.117 137.724 156.545V162H136.384Z" fill="black"/>
<path d="M1.40909 195V183.364H2.81818V193.75H8.22727V195H1.40909ZM13.7727 195.182C12.9848 195.182 12.2936 194.994 11.6989 194.619C11.108 194.244 10.6458 193.72 10.3125 193.045C9.98295 192.371 9.81818 191.583 9.81818 190.682C9.81818 189.773 9.98295 188.979 10.3125 188.301C10.6458 187.623 11.108 187.097 11.6989 186.722C12.2936 186.347 12.9848 186.159 13.7727 186.159C14.5606 186.159 15.25 186.347 15.8409 186.722C16.4356 187.097 16.8977 187.623 17.2273 188.301C17.5606 188.979 17.7273 189.773 17.7273 190.682C17.7273 191.583 17.5606 192.371 17.2273 193.045C16.8977 193.72 16.4356 194.244 15.8409 194.619C15.25 194.994 14.5606 195.182 13.7727 195.182ZM13.7727 193.977C14.3712 193.977 14.8636 193.824 15.25 193.517C15.6364 193.21 15.9223 192.807 16.108 192.307C16.2936 191.807 16.3864 191.265 16.3864 190.682C16.3864 190.098 16.2936 189.555 16.108 189.051C15.9223 188.547 15.6364 188.14 15.25 187.83C14.8636 187.519 14.3712 187.364 13.7727 187.364C13.1742 187.364 12.6818 187.519 12.2955 187.83C11.9091 188.14 11.6231 188.547 11.4375 189.051C11.2519 189.555 11.1591 190.098 11.1591 190.682C11.1591 191.265 11.2519 191.807 11.4375 192.307C11.6231 192.807 11.9091 193.21 12.2955 193.517C12.6818 193.824 13.1742 193.977 13.7727 193.977ZM19.7741 195V186.273H21.0696V187.591H21.1605C21.3196 187.159 21.6075 186.809 22.0241 186.54C22.4408 186.271 22.9105 186.136 23.4332 186.136C23.5317 186.136 23.6548 186.138 23.8026 186.142C23.9503 186.146 24.062 186.152 24.1378 186.159V187.523C24.0923 187.511 23.9882 187.494 23.8253 187.472C23.6662 187.445 23.4976 187.432 23.3196 187.432C22.8954 187.432 22.5166 187.521 22.1832 187.699C21.8537 187.873 21.5923 188.116 21.3991 188.426C21.2098 188.733 21.1151 189.083 21.1151 189.477V195H19.7741ZM29.1207 195.182C28.2798 195.182 27.5545 194.996 26.9446 194.625C26.3385 194.25 25.8707 193.727 25.5412 193.057C25.2154 192.383 25.0526 191.598 25.0526 190.705C25.0526 189.811 25.2154 189.023 25.5412 188.341C25.8707 187.655 26.3291 187.121 26.9162 186.739C27.5071 186.352 28.1965 186.159 28.9844 186.159C29.4389 186.159 29.8878 186.235 30.331 186.386C30.7741 186.538 31.1776 186.784 31.5412 187.125C31.9048 187.462 32.1946 187.909 32.4105 188.466C32.6264 189.023 32.7344 189.708 32.7344 190.523V191.091H26.0071V189.932H31.3707C31.3707 189.439 31.2723 189 31.0753 188.614C30.8821 188.227 30.6056 187.922 30.2457 187.699C29.8897 187.475 29.4692 187.364 28.9844 187.364C28.4503 187.364 27.9882 187.496 27.598 187.761C27.2116 188.023 26.9143 188.364 26.706 188.784C26.4976 189.205 26.3935 189.655 26.3935 190.136V190.909C26.3935 191.568 26.5071 192.127 26.7344 192.585C26.9654 193.04 27.2855 193.386 27.6946 193.625C28.1037 193.86 28.5791 193.977 29.1207 193.977C29.473 193.977 29.7912 193.928 30.0753 193.83C30.3632 193.727 30.6113 193.576 30.8196 193.375C31.0279 193.17 31.1889 192.917 31.3026 192.614L32.598 192.977C32.4616 193.417 32.2325 193.803 31.9105 194.136C31.5885 194.466 31.1908 194.723 30.7173 194.909C30.2438 195.091 29.7116 195.182 29.1207 195.182ZM34.7741 195V186.273H36.0696V187.636H36.1832C36.3651 187.17 36.6586 186.809 37.0639 186.551C37.4692 186.29 37.956 186.159 38.5241 186.159C39.0999 186.159 39.5791 186.29 39.9616 186.551C40.348 186.809 40.6491 187.17 40.8651 187.636H40.956C41.1795 187.186 41.5147 186.828 41.9616 186.562C42.4086 186.294 42.9446 186.159 43.5696 186.159C44.3499 186.159 44.9882 186.403 45.4844 186.892C45.9806 187.377 46.2287 188.133 46.2287 189.159V195H44.8878V189.159C44.8878 188.515 44.7116 188.055 44.3594 187.778C44.0071 187.502 43.5923 187.364 43.1151 187.364C42.5014 187.364 42.026 187.549 41.6889 187.92C41.3518 188.288 41.1832 188.754 41.1832 189.318V195H39.8196V189.023C39.8196 188.527 39.6586 188.127 39.3366 187.824C39.0147 187.517 38.5999 187.364 38.0923 187.364C37.7438 187.364 37.4181 187.456 37.1151 187.642C36.8158 187.828 36.5734 188.085 36.3878 188.415C36.206 188.741 36.1151 189.117 36.1151 189.545V195H34.7741ZM53.1804 195V186.273H54.5213V195H53.1804ZM53.8622 184.818C53.6009 184.818 53.3755 184.729 53.1861 184.551C53.0005 184.373 52.9077 184.159 52.9077 183.909C52.9077 183.659 53.0005 183.445 53.1861 183.267C53.3755 183.089 53.6009 183 53.8622 183C54.1236 183 54.3471 183.089 54.5327 183.267C54.7221 183.445 54.8168 183.659 54.8168 183.909C54.8168 184.159 54.7221 184.373 54.5327 184.551C54.3471 184.729 54.1236 184.818 53.8622 184.818ZM56.9773 198.273V186.273H58.2727V187.659H58.4318C58.5303 187.508 58.6667 187.314 58.8409 187.08C59.0189 186.841 59.2727 186.629 59.6023 186.443C59.9356 186.254 60.3864 186.159 60.9545 186.159C61.6894 186.159 62.3371 186.343 62.8977 186.71C63.4583 187.078 63.8958 187.598 64.2102 188.273C64.5246 188.947 64.6818 189.742 64.6818 190.659C64.6818 191.583 64.5246 192.384 64.2102 193.062C63.8958 193.737 63.4602 194.259 62.9034 194.631C62.3466 194.998 61.7045 195.182 60.9773 195.182C60.4167 195.182 59.9678 195.089 59.6307 194.903C59.2936 194.714 59.0341 194.5 58.8523 194.261C58.6705 194.019 58.5303 193.818 58.4318 193.659H58.3182V198.273H56.9773ZM58.2955 190.636C58.2955 191.295 58.392 191.877 58.5852 192.381C58.7784 192.881 59.0606 193.273 59.4318 193.557C59.803 193.837 60.2576 193.977 60.7955 193.977C61.3561 193.977 61.8239 193.83 62.1989 193.534C62.5777 193.235 62.8617 192.833 63.0511 192.33C63.2443 191.822 63.3409 191.258 63.3409 190.636C63.3409 190.023 63.2462 189.47 63.0568 188.977C62.8712 188.481 62.589 188.089 62.2102 187.801C61.8352 187.509 61.3636 187.364 60.7955 187.364C60.25 187.364 59.7917 187.502 59.4205 187.778C59.0492 188.051 58.7689 188.434 58.5795 188.926C58.3902 189.415 58.2955 189.985 58.2955 190.636ZM72.9091 188.227L71.7045 188.568C71.6288 188.367 71.517 188.172 71.3693 187.983C71.2254 187.79 71.0284 187.631 70.7784 187.506C70.5284 187.381 70.2083 187.318 69.8182 187.318C69.2841 187.318 68.839 187.441 68.483 187.688C68.1307 187.93 67.9545 188.239 67.9545 188.614C67.9545 188.947 68.0758 189.21 68.3182 189.403C68.5606 189.597 68.9394 189.758 69.4545 189.886L70.75 190.205C71.5303 190.394 72.1117 190.684 72.4943 191.074C72.8769 191.46 73.0682 191.958 73.0682 192.568C73.0682 193.068 72.9242 193.515 72.6364 193.909C72.3523 194.303 71.9545 194.614 71.4432 194.841C70.9318 195.068 70.3371 195.182 69.6591 195.182C68.7689 195.182 68.0322 194.989 67.4489 194.602C66.8655 194.216 66.4962 193.652 66.3409 192.909L67.6136 192.591C67.7348 193.061 67.964 193.413 68.3011 193.648C68.642 193.883 69.0871 194 69.6364 194C70.2614 194 70.7576 193.867 71.125 193.602C71.4962 193.333 71.6818 193.011 71.6818 192.636C71.6818 192.333 71.5758 192.08 71.3636 191.875C71.1515 191.667 70.8258 191.511 70.3864 191.409L68.9318 191.068C68.1326 190.879 67.5455 190.585 67.1705 190.188C66.7992 189.786 66.6136 189.284 66.6136 188.682C66.6136 188.189 66.7519 187.754 67.0284 187.375C67.3087 186.996 67.6894 186.699 68.1705 186.483C68.6553 186.267 69.2045 186.159 69.8182 186.159C70.6818 186.159 71.3598 186.348 71.8523 186.727C72.3485 187.106 72.7008 187.606 72.9091 188.227ZM80.5866 191.432V186.273H81.9276V195H80.5866V193.523H80.4957C80.2912 193.966 79.973 194.343 79.5412 194.653C79.1094 194.96 78.5639 195.114 77.9048 195.114C77.3594 195.114 76.8745 194.994 76.4503 194.756C76.026 194.513 75.6927 194.15 75.4503 193.665C75.2079 193.176 75.0866 192.561 75.0866 191.818V186.273H76.4276V191.727C76.4276 192.364 76.6056 192.871 76.9616 193.25C77.3215 193.629 77.7798 193.818 78.3366 193.818C78.67 193.818 79.009 193.733 79.3537 193.562C79.7022 193.392 79.9938 193.131 80.2287 192.778C80.4673 192.426 80.5866 191.977 80.5866 191.432ZM84.3835 195V186.273H85.679V187.636H85.7926C85.9744 187.17 86.268 186.809 86.6733 186.551C87.0786 186.29 87.5653 186.159 88.1335 186.159C88.7093 186.159 89.1884 186.29 89.571 186.551C89.9574 186.809 90.2585 187.17 90.4744 187.636H90.5653C90.7888 187.186 91.1241 186.828 91.571 186.562C92.018 186.294 92.554 186.159 93.179 186.159C93.9593 186.159 94.5975 186.403 95.0938 186.892C95.59 187.377 95.8381 188.133 95.8381 189.159V195H94.4972V189.159C94.4972 188.515 94.321 188.055 93.9688 187.778C93.6165 187.502 93.2017 187.364 92.7244 187.364C92.1108 187.364 91.6354 187.549 91.2983 187.92C90.9612 188.288 90.7926 188.754 90.7926 189.318V195H89.429V189.023C89.429 188.527 89.268 188.127 88.946 187.824C88.6241 187.517 88.2093 187.364 87.7017 187.364C87.3532 187.364 87.0275 187.456 86.7244 187.642C86.4252 187.828 86.1828 188.085 85.9972 188.415C85.8153 188.741 85.7244 189.117 85.7244 189.545V195H84.3835ZM106.085 195.182C105.358 195.182 104.716 194.998 104.159 194.631C103.602 194.259 103.167 193.737 102.852 193.062C102.538 192.384 102.381 191.583 102.381 190.659C102.381 189.742 102.538 188.947 102.852 188.273C103.167 187.598 103.604 187.078 104.165 186.71C104.725 186.343 105.373 186.159 106.108 186.159C106.676 186.159 107.125 186.254 107.455 186.443C107.788 186.629 108.042 186.841 108.216 187.08C108.394 187.314 108.532 187.508 108.631 187.659H108.744V183.364H110.085V195H108.79V193.659H108.631C108.532 193.818 108.392 194.019 108.21 194.261C108.028 194.5 107.769 194.714 107.432 194.903C107.095 195.089 106.646 195.182 106.085 195.182ZM106.267 193.977C106.805 193.977 107.259 193.837 107.631 193.557C108.002 193.273 108.284 192.881 108.477 192.381C108.67 191.877 108.767 191.295 108.767 190.636C108.767 189.985 108.672 189.415 108.483 188.926C108.294 188.434 108.013 188.051 107.642 187.778C107.271 187.502 106.813 187.364 106.267 187.364C105.699 187.364 105.225 187.509 104.847 187.801C104.472 188.089 104.189 188.481 104 188.977C103.814 189.47 103.722 190.023 103.722 190.636C103.722 191.258 103.816 191.822 104.006 192.33C104.199 192.833 104.483 193.235 104.858 193.534C105.237 193.83 105.706 193.977 106.267 193.977ZM116.273 195.182C115.485 195.182 114.794 194.994 114.199 194.619C113.608 194.244 113.146 193.72 112.812 193.045C112.483 192.371 112.318 191.583 112.318 190.682C112.318 189.773 112.483 188.979 112.812 188.301C113.146 187.623 113.608 187.097 114.199 186.722C114.794 186.347 115.485 186.159 116.273 186.159C117.061 186.159 117.75 186.347 118.341 186.722C118.936 187.097 119.398 187.623 119.727 188.301C120.061 188.979 120.227 189.773 120.227 190.682C120.227 191.583 120.061 192.371 119.727 193.045C119.398 193.72 118.936 194.244 118.341 194.619C117.75 194.994 117.061 195.182 116.273 195.182ZM116.273 193.977C116.871 193.977 117.364 193.824 117.75 193.517C118.136 193.21 118.422 192.807 118.608 192.307C118.794 191.807 118.886 191.265 118.886 190.682C118.886 190.098 118.794 189.555 118.608 189.051C118.422 188.547 118.136 188.14 117.75 187.83C117.364 187.519 116.871 187.364 116.273 187.364C115.674 187.364 115.182 187.519 114.795 187.83C114.409 188.14 114.123 188.547 113.938 189.051C113.752 189.555 113.659 190.098 113.659 190.682C113.659 191.265 113.752 191.807 113.938 192.307C114.123 192.807 114.409 193.21 114.795 193.517C115.182 193.824 115.674 193.977 116.273 193.977ZM123.615 183.364V195H122.274V183.364H123.615ZM129.616 195.182C128.829 195.182 128.137 194.994 127.543 194.619C126.952 194.244 126.49 193.72 126.156 193.045C125.827 192.371 125.662 191.583 125.662 190.682C125.662 189.773 125.827 188.979 126.156 188.301C126.49 187.623 126.952 187.097 127.543 186.722C128.137 186.347 128.829 186.159 129.616 186.159C130.404 186.159 131.094 186.347 131.685 186.722C132.279 187.097 132.741 187.623 133.071 188.301C133.404 188.979 133.571 189.773 133.571 190.682C133.571 191.583 133.404 192.371 133.071 193.045C132.741 193.72 132.279 194.244 131.685 194.619C131.094 194.994 130.404 195.182 129.616 195.182ZM129.616 193.977C130.215 193.977 130.707 193.824 131.094 193.517C131.48 193.21 131.766 192.807 131.952 192.307C132.137 191.807 132.23 191.265 132.23 190.682C132.23 190.098 132.137 189.555 131.952 189.051C131.766 188.547 131.48 188.14 131.094 187.83C130.707 187.519 130.215 187.364 129.616 187.364C129.018 187.364 128.526 187.519 128.139 187.83C127.753 188.14 127.467 188.547 127.281 189.051C127.096 189.555 127.003 190.098 127.003 190.682C127.003 191.265 127.096 191.807 127.281 192.307C127.467 192.807 127.753 193.21 128.139 193.517C128.526 193.824 129.018 193.977 129.616 193.977ZM135.618 195V186.273H136.913V187.591H137.004C137.163 187.159 137.451 186.809 137.868 186.54C138.285 186.271 138.754 186.136 139.277 186.136C139.375 186.136 139.499 186.138 139.646 186.142C139.794 186.146 139.906 186.152 139.982 186.159V187.523C139.936 187.511 139.832 187.494 139.669 187.472C139.51 187.445 139.341 187.432 139.163 187.432C138.739 187.432 138.36 187.521 138.027 187.699C137.697 187.873 137.436 188.116 137.243 188.426C137.054 188.733 136.959 189.083 136.959 189.477V195H135.618ZM152.253 188.227L151.048 188.568C150.973 188.367 150.861 188.172 150.713 187.983C150.569 187.79 150.372 187.631 150.122 187.506C149.872 187.381 149.552 187.318 149.162 187.318C148.628 187.318 148.183 187.441 147.827 187.688C147.474 187.93 147.298 188.239 147.298 188.614C147.298 188.947 147.42 189.21 147.662 189.403C147.904 189.597 148.283 189.758 148.798 189.886L150.094 190.205C150.874 190.394 151.455 190.684 151.838 191.074C152.221 191.46 152.412 191.958 152.412 192.568C152.412 193.068 152.268 193.515 151.98 193.909C151.696 194.303 151.298 194.614 150.787 194.841C150.276 195.068 149.681 195.182 149.003 195.182C148.113 195.182 147.376 194.989 146.793 194.602C146.209 194.216 145.84 193.652 145.685 192.909L146.957 192.591C147.079 193.061 147.308 193.413 147.645 193.648C147.986 193.883 148.431 194 148.98 194C149.605 194 150.101 193.867 150.469 193.602C150.84 193.333 151.026 193.011 151.026 192.636C151.026 192.333 150.92 192.08 150.707 191.875C150.495 191.667 150.17 191.511 149.73 191.409L148.276 191.068C147.476 190.879 146.889 190.585 146.514 190.188C146.143 189.786 145.957 189.284 145.957 188.682C145.957 188.189 146.096 187.754 146.372 187.375C146.652 186.996 147.033 186.699 147.514 186.483C147.999 186.267 148.548 186.159 149.162 186.159C150.026 186.159 150.704 186.348 151.196 186.727C151.692 187.106 152.045 187.606 152.253 188.227ZM154.43 195V186.273H155.771V195H154.43ZM155.112 184.818C154.851 184.818 154.625 184.729 154.436 184.551C154.25 184.373 154.158 184.159 154.158 183.909C154.158 183.659 154.25 183.445 154.436 183.267C154.625 183.089 154.851 183 155.112 183C155.374 183 155.597 183.089 155.783 183.267C155.972 183.445 156.067 183.659 156.067 183.909C156.067 184.159 155.972 184.373 155.783 184.551C155.597 184.729 155.374 184.818 155.112 184.818ZM162.023 186.273V187.409H157.5V186.273H162.023ZM158.818 184.182H160.159V192.5C160.159 192.879 160.214 193.163 160.324 193.352C160.438 193.538 160.581 193.663 160.756 193.727C160.934 193.788 161.121 193.818 161.318 193.818C161.466 193.818 161.587 193.811 161.682 193.795C161.777 193.777 161.852 193.761 161.909 193.75L162.182 194.955C162.091 194.989 161.964 195.023 161.801 195.057C161.638 195.095 161.432 195.114 161.182 195.114C160.803 195.114 160.432 195.032 160.068 194.869C159.708 194.706 159.409 194.458 159.17 194.125C158.936 193.792 158.818 193.371 158.818 192.864V184.182ZM171.108 195.205C170.555 195.205 170.053 195.1 169.602 194.892C169.152 194.68 168.794 194.375 168.528 193.977C168.263 193.576 168.131 193.091 168.131 192.523C168.131 192.023 168.229 191.617 168.426 191.307C168.623 190.992 168.886 190.746 169.216 190.568C169.545 190.39 169.909 190.258 170.307 190.17C170.708 190.08 171.112 190.008 171.517 189.955C172.047 189.886 172.477 189.835 172.807 189.801C173.14 189.763 173.383 189.701 173.534 189.614C173.689 189.527 173.767 189.375 173.767 189.159V189.114C173.767 188.553 173.614 188.117 173.307 187.807C173.004 187.496 172.544 187.341 171.926 187.341C171.286 187.341 170.784 187.481 170.42 187.761C170.057 188.042 169.801 188.341 169.653 188.659L168.381 188.205C168.608 187.674 168.911 187.261 169.29 186.966C169.672 186.667 170.089 186.458 170.54 186.341C170.994 186.22 171.441 186.159 171.881 186.159C172.161 186.159 172.483 186.193 172.847 186.261C173.214 186.326 173.568 186.46 173.909 186.665C174.254 186.869 174.54 187.178 174.767 187.591C174.994 188.004 175.108 188.557 175.108 189.25V195H173.767V193.818H173.699C173.608 194.008 173.456 194.21 173.244 194.426C173.032 194.642 172.75 194.826 172.398 194.977C172.045 195.129 171.616 195.205 171.108 195.205ZM171.312 194C171.843 194 172.29 193.896 172.653 193.688C173.021 193.479 173.297 193.21 173.483 192.881C173.672 192.551 173.767 192.205 173.767 191.841V190.614C173.71 190.682 173.585 190.744 173.392 190.801C173.203 190.854 172.983 190.902 172.733 190.943C172.487 190.981 172.246 191.015 172.011 191.045C171.78 191.072 171.593 191.095 171.449 191.114C171.1 191.159 170.775 191.233 170.472 191.335C170.172 191.434 169.93 191.583 169.744 191.784C169.563 191.981 169.472 192.25 169.472 192.591C169.472 193.057 169.644 193.409 169.989 193.648C170.337 193.883 170.778 194 171.312 194ZM177.555 195V186.273H178.851V187.636H178.964C179.146 187.17 179.44 186.809 179.845 186.551C180.25 186.29 180.737 186.159 181.305 186.159C181.881 186.159 182.36 186.29 182.743 186.551C183.129 186.809 183.43 187.17 183.646 187.636H183.737C183.961 187.186 184.296 186.828 184.743 186.562C185.19 186.294 185.726 186.159 186.351 186.159C187.131 186.159 187.769 186.403 188.266 186.892C188.762 187.377 189.01 188.133 189.01 189.159V195H187.669V189.159C187.669 188.515 187.493 188.055 187.141 187.778C186.788 187.502 186.374 187.364 185.896 187.364C185.283 187.364 184.807 187.549 184.47 187.92C184.133 188.288 183.964 188.754 183.964 189.318V195H182.601V189.023C182.601 188.527 182.44 188.127 182.118 187.824C181.796 187.517 181.381 187.364 180.874 187.364C180.525 187.364 180.199 187.456 179.896 187.642C179.597 187.828 179.355 188.085 179.169 188.415C178.987 188.741 178.896 189.117 178.896 189.545V195H177.555ZM195.121 195.182C194.28 195.182 193.554 194.996 192.945 194.625C192.339 194.25 191.871 193.727 191.541 193.057C191.215 192.383 191.053 191.598 191.053 190.705C191.053 189.811 191.215 189.023 191.541 188.341C191.871 187.655 192.329 187.121 192.916 186.739C193.507 186.352 194.196 186.159 194.984 186.159C195.439 186.159 195.888 186.235 196.331 186.386C196.774 186.538 197.178 186.784 197.541 187.125C197.905 187.462 198.195 187.909 198.411 188.466C198.626 189.023 198.734 189.708 198.734 190.523V191.091H192.007V189.932H197.371C197.371 189.439 197.272 189 197.075 188.614C196.882 188.227 196.606 187.922 196.246 187.699C195.89 187.475 195.469 187.364 194.984 187.364C194.45 187.364 193.988 187.496 193.598 187.761C193.212 188.023 192.914 188.364 192.706 188.784C192.498 189.205 192.393 189.655 192.393 190.136V190.909C192.393 191.568 192.507 192.127 192.734 192.585C192.965 193.04 193.286 193.386 193.695 193.625C194.104 193.86 194.579 193.977 195.121 193.977C195.473 193.977 195.791 193.928 196.075 193.83C196.363 193.727 196.611 193.576 196.82 193.375C197.028 193.17 197.189 192.917 197.303 192.614L198.598 192.977C198.462 193.417 198.232 193.803 197.911 194.136C197.589 194.466 197.191 194.723 196.717 194.909C196.244 195.091 195.712 195.182 195.121 195.182ZM204.57 186.273V187.409H200.047V186.273H204.57ZM201.365 184.182H202.706V192.5C202.706 192.879 202.761 193.163 202.871 193.352C202.984 193.538 203.128 193.663 203.303 193.727C203.481 193.788 203.668 193.818 203.865 193.818C204.013 193.818 204.134 193.811 204.229 193.795C204.323 193.777 204.399 193.761 204.456 193.75L204.729 194.955C204.638 194.989 204.511 195.023 204.348 195.057C204.185 195.095 203.979 195.114 203.729 195.114C203.35 195.114 202.979 195.032 202.615 194.869C202.255 194.706 201.956 194.458 201.717 194.125C201.482 193.792 201.365 193.371 201.365 192.864V184.182ZM208.587 193.409L208.496 194.023C208.431 194.455 208.333 194.917 208.2 195.409C208.071 195.902 207.937 196.366 207.797 196.801C207.657 197.237 207.541 197.583 207.45 197.841H206.428C206.477 197.598 206.541 197.278 206.621 196.881C206.7 196.483 206.78 196.038 206.859 195.545C206.943 195.057 207.011 194.557 207.064 194.045L207.132 193.409H208.587ZM4.77273 214.182C3.95455 214.182 3.25 213.989 2.65909 213.602C2.06818 213.216 1.61364 212.684 1.29545 212.006C0.977273 211.328 0.818182 210.553 0.818182 209.682C0.818182 208.795 0.981061 208.013 1.30682 207.335C1.63636 206.653 2.0947 206.121 2.68182 205.739C3.27273 205.352 3.96212 205.159 4.75 205.159C5.36364 205.159 5.91667 205.273 6.40909 205.5C6.90152 205.727 7.30492 206.045 7.61932 206.455C7.93371 206.864 8.12879 207.341 8.20455 207.886H6.86364C6.76136 207.489 6.53409 207.136 6.18182 206.83C5.83333 206.519 5.36364 206.364 4.77273 206.364C4.25 206.364 3.79167 206.5 3.39773 206.773C3.00758 207.042 2.70265 207.422 2.48295 207.915C2.26705 208.403 2.15909 208.977 2.15909 209.636C2.15909 210.311 2.26515 210.898 2.47727 211.398C2.69318 211.898 2.99621 212.286 3.38636 212.562C3.7803 212.839 4.24242 212.977 4.77273 212.977C5.12121 212.977 5.4375 212.917 5.72159 212.795C6.00568 212.674 6.24621 212.5 6.44318 212.273C6.64015 212.045 6.7803 211.773 6.86364 211.455H8.20455C8.12879 211.97 7.94129 212.434 7.64205 212.847C7.34659 213.256 6.95455 213.581 6.46591 213.824C5.98106 214.062 5.41667 214.182 4.77273 214.182ZM13.7102 214.182C12.9223 214.182 12.2311 213.994 11.6364 213.619C11.0455 213.244 10.5833 212.72 10.25 212.045C9.92045 211.371 9.75568 210.583 9.75568 209.682C9.75568 208.773 9.92045 207.979 10.25 207.301C10.5833 206.623 11.0455 206.097 11.6364 205.722C12.2311 205.347 12.9223 205.159 13.7102 205.159C14.4981 205.159 15.1875 205.347 15.7784 205.722C16.3731 206.097 16.8352 206.623 17.1648 207.301C17.4981 207.979 17.6648 208.773 17.6648 209.682C17.6648 210.583 17.4981 211.371 17.1648 212.045C16.8352 212.72 16.3731 213.244 15.7784 213.619C15.1875 213.994 14.4981 214.182 13.7102 214.182ZM13.7102 212.977C14.3087 212.977 14.8011 212.824 15.1875 212.517C15.5739 212.21 15.8598 211.807 16.0455 211.307C16.2311 210.807 16.3239 210.265 16.3239 209.682C16.3239 209.098 16.2311 208.555 16.0455 208.051C15.8598 207.547 15.5739 207.14 15.1875 206.83C14.8011 206.519 14.3087 206.364 13.7102 206.364C13.1117 206.364 12.6193 206.519 12.233 206.83C11.8466 207.14 11.5606 207.547 11.375 208.051C11.1894 208.555 11.0966 209.098 11.0966 209.682C11.0966 210.265 11.1894 210.807 11.375 211.307C11.5606 211.807 11.8466 212.21 12.233 212.517C12.6193 212.824 13.1117 212.977 13.7102 212.977ZM21.0526 208.75V214H19.7116V205.273H21.0071V206.636H21.1207C21.3253 206.193 21.6359 205.837 22.0526 205.568C22.4692 205.295 23.0071 205.159 23.6662 205.159C24.2571 205.159 24.7741 205.28 25.2173 205.523C25.6605 205.761 26.0052 206.125 26.2514 206.614C26.4976 207.098 26.6207 207.712 26.6207 208.455V214H25.2798V208.545C25.2798 207.86 25.1018 207.326 24.7457 206.943C24.3897 206.557 23.901 206.364 23.2798 206.364C22.8518 206.364 22.4692 206.456 22.1321 206.642C21.7988 206.828 21.5355 207.098 21.3423 207.455C21.1491 207.811 21.0526 208.242 21.0526 208.75ZM35.2528 207.227L34.0483 207.568C33.9725 207.367 33.8608 207.172 33.7131 206.983C33.5691 206.79 33.3722 206.631 33.1222 206.506C32.8722 206.381 32.5521 206.318 32.1619 206.318C31.6278 206.318 31.1828 206.441 30.8267 206.688C30.4744 206.93 30.2983 207.239 30.2983 207.614C30.2983 207.947 30.4195 208.21 30.6619 208.403C30.9044 208.597 31.2831 208.758 31.7983 208.886L33.0938 209.205C33.8741 209.394 34.4555 209.684 34.8381 210.074C35.2206 210.46 35.4119 210.958 35.4119 211.568C35.4119 212.068 35.268 212.515 34.9801 212.909C34.696 213.303 34.2983 213.614 33.7869 213.841C33.2756 214.068 32.6809 214.182 32.0028 214.182C31.1127 214.182 30.3759 213.989 29.7926 213.602C29.2093 213.216 28.84 212.652 28.6847 211.909L29.9574 211.591C30.0786 212.061 30.3078 212.413 30.6449 212.648C30.9858 212.883 31.4309 213 31.9801 213C32.6051 213 33.1013 212.867 33.4688 212.602C33.84 212.333 34.0256 212.011 34.0256 211.636C34.0256 211.333 33.9195 211.08 33.7074 210.875C33.4953 210.667 33.1695 210.511 32.7301 210.409L31.2756 210.068C30.4763 209.879 29.8892 209.585 29.5142 209.188C29.143 208.786 28.9574 208.284 28.9574 207.682C28.9574 207.189 29.0956 206.754 29.3722 206.375C29.6525 205.996 30.0331 205.699 30.5142 205.483C30.9991 205.267 31.5483 205.159 32.1619 205.159C33.0256 205.159 33.7036 205.348 34.196 205.727C34.6922 206.106 35.0445 206.606 35.2528 207.227ZM41.0895 214.182C40.2486 214.182 39.5232 213.996 38.9134 213.625C38.3073 213.25 37.8395 212.727 37.5099 212.057C37.1842 211.383 37.0213 210.598 37.0213 209.705C37.0213 208.811 37.1842 208.023 37.5099 207.341C37.8395 206.655 38.2978 206.121 38.8849 205.739C39.4759 205.352 40.1652 205.159 40.9531 205.159C41.4077 205.159 41.8565 205.235 42.2997 205.386C42.7429 205.538 43.1463 205.784 43.5099 206.125C43.8736 206.462 44.1634 206.909 44.3793 207.466C44.5952 208.023 44.7031 208.708 44.7031 209.523V210.091H37.9759V208.932H43.3395C43.3395 208.439 43.241 208 43.044 207.614C42.8509 207.227 42.5743 206.922 42.2145 206.699C41.8584 206.475 41.438 206.364 40.9531 206.364C40.419 206.364 39.9569 206.496 39.5668 206.761C39.1804 207.023 38.883 207.364 38.6747 207.784C38.4664 208.205 38.3622 208.655 38.3622 209.136V209.909C38.3622 210.568 38.4759 211.127 38.7031 211.585C38.9342 212.04 39.2543 212.386 39.6634 212.625C40.0724 212.86 40.5478 212.977 41.0895 212.977C41.4418 212.977 41.7599 212.928 42.044 212.83C42.3319 212.727 42.58 212.576 42.7884 212.375C42.9967 212.17 43.1577 211.917 43.2713 211.614L44.5668 211.977C44.4304 212.417 44.2012 212.803 43.8793 213.136C43.5573 213.466 43.1596 213.723 42.6861 213.909C42.2126 214.091 41.6804 214.182 41.0895 214.182ZM50.2884 214.182C49.4702 214.182 48.7656 213.989 48.1747 213.602C47.5838 213.216 47.1293 212.684 46.8111 212.006C46.4929 211.328 46.3338 210.553 46.3338 209.682C46.3338 208.795 46.4967 208.013 46.8224 207.335C47.152 206.653 47.6103 206.121 48.1974 205.739C48.7884 205.352 49.4777 205.159 50.2656 205.159C50.8793 205.159 51.4323 205.273 51.9247 205.5C52.4171 205.727 52.8205 206.045 53.1349 206.455C53.4493 206.864 53.6444 207.341 53.7202 207.886H52.3793C52.277 207.489 52.0497 207.136 51.6974 206.83C51.349 206.519 50.8793 206.364 50.2884 206.364C49.7656 206.364 49.3073 206.5 48.9134 206.773C48.5232 207.042 48.2183 207.422 47.9986 207.915C47.7827 208.403 47.6747 208.977 47.6747 209.636C47.6747 210.311 47.7808 210.898 47.9929 211.398C48.2088 211.898 48.5118 212.286 48.902 212.562C49.2959 212.839 49.758 212.977 50.2884 212.977C50.6368 212.977 50.9531 212.917 51.2372 212.795C51.5213 212.674 51.7618 212.5 51.9588 212.273C52.1558 212.045 52.2959 211.773 52.3793 211.455H53.7202C53.6444 211.97 53.4569 212.434 53.1577 212.847C52.8622 213.256 52.4702 213.581 51.9815 213.824C51.4967 214.062 50.9323 214.182 50.2884 214.182ZM59.4759 205.273V206.409H54.9531V205.273H59.4759ZM56.2713 203.182H57.6122V211.5C57.6122 211.879 57.6671 212.163 57.777 212.352C57.8906 212.538 58.0346 212.663 58.2088 212.727C58.3868 212.788 58.5743 212.818 58.7713 212.818C58.919 212.818 59.0402 212.811 59.1349 212.795C59.2296 212.777 59.3054 212.761 59.3622 212.75L59.6349 213.955C59.544 213.989 59.4171 214.023 59.2543 214.057C59.0914 214.095 58.8849 214.114 58.6349 214.114C58.2562 214.114 57.8849 214.032 57.5213 213.869C57.1615 213.706 56.8622 213.458 56.6236 213.125C56.3887 212.792 56.2713 212.371 56.2713 211.864V203.182ZM65.0582 214.182C64.2173 214.182 63.492 213.996 62.8821 213.625C62.276 213.25 61.8082 212.727 61.4787 212.057C61.1529 211.383 60.9901 210.598 60.9901 209.705C60.9901 208.811 61.1529 208.023 61.4787 207.341C61.8082 206.655 62.2666 206.121 62.8537 205.739C63.4446 205.352 64.134 205.159 64.9219 205.159C65.3764 205.159 65.8253 205.235 66.2685 205.386C66.7116 205.538 67.1151 205.784 67.4787 206.125C67.8423 206.462 68.1321 206.909 68.348 207.466C68.5639 208.023 68.6719 208.708 68.6719 209.523V210.091H61.9446V208.932H67.3082C67.3082 208.439 67.2098 208 67.0128 207.614C66.8196 207.227 66.5431 206.922 66.1832 206.699C65.8272 206.475 65.4067 206.364 64.9219 206.364C64.3878 206.364 63.9257 206.496 63.5355 206.761C63.1491 207.023 62.8518 207.364 62.6435 207.784C62.4351 208.205 62.331 208.655 62.331 209.136V209.909C62.331 210.568 62.4446 211.127 62.6719 211.585C62.9029 212.04 63.223 212.386 63.6321 212.625C64.0412 212.86 64.5166 212.977 65.0582 212.977C65.4105 212.977 65.7287 212.928 66.0128 212.83C66.3007 212.727 66.5488 212.576 66.7571 212.375C66.9654 212.17 67.1264 211.917 67.2401 211.614L68.5355 211.977C68.3991 212.417 68.17 212.803 67.848 213.136C67.526 213.466 67.1283 213.723 66.6548 213.909C66.1813 214.091 65.6491 214.182 65.0582 214.182ZM74.5071 205.273V206.409H69.9844V205.273H74.5071ZM71.3026 203.182H72.6435V211.5C72.6435 211.879 72.6984 212.163 72.8082 212.352C72.9219 212.538 73.0658 212.663 73.2401 212.727C73.4181 212.788 73.6056 212.818 73.8026 212.818C73.9503 212.818 74.0715 212.811 74.1662 212.795C74.2609 212.777 74.3366 212.761 74.3935 212.75L74.6662 213.955C74.5753 213.989 74.4484 214.023 74.2855 214.057C74.1226 214.095 73.9162 214.114 73.6662 214.114C73.2874 214.114 72.9162 214.032 72.5526 213.869C72.1927 213.706 71.8935 213.458 71.6548 213.125C71.42 212.792 71.3026 212.371 71.3026 211.864V203.182ZM82.0241 210.432V205.273H83.3651V214H82.0241V212.523H81.9332C81.7287 212.966 81.4105 213.343 80.9787 213.653C80.5469 213.96 80.0014 214.114 79.3423 214.114C78.7969 214.114 78.312 213.994 77.8878 213.756C77.4635 213.513 77.1302 213.15 76.8878 212.665C76.6454 212.176 76.5241 211.561 76.5241 210.818V205.273H77.8651V210.727C77.8651 211.364 78.0431 211.871 78.3991 212.25C78.759 212.629 79.2173 212.818 79.7741 212.818C80.1075 212.818 80.4465 212.733 80.7912 212.562C81.1397 212.392 81.4313 212.131 81.6662 211.778C81.9048 211.426 82.0241 210.977 82.0241 210.432ZM85.821 214V205.273H87.1165V206.591H87.2074C87.3665 206.159 87.6544 205.809 88.071 205.54C88.4877 205.271 88.9574 205.136 89.4801 205.136C89.5786 205.136 89.7017 205.138 89.8494 205.142C89.9972 205.146 90.1089 205.152 90.1847 205.159V206.523C90.1392 206.511 90.035 206.494 89.8722 206.472C89.7131 206.445 89.5445 206.432 89.3665 206.432C88.9422 206.432 88.5634 206.521 88.2301 206.699C87.9006 206.873 87.6392 207.116 87.446 207.426C87.2566 207.733 87.1619 208.083 87.1619 208.477V214H85.821ZM98.8423 214.205C98.2893 214.205 97.7874 214.1 97.3366 213.892C96.8859 213.68 96.5279 213.375 96.2628 212.977C95.9976 212.576 95.8651 212.091 95.8651 211.523C95.8651 211.023 95.9635 210.617 96.1605 210.307C96.3575 209.992 96.6207 209.746 96.9503 209.568C97.2798 209.39 97.6435 209.258 98.0412 209.17C98.4427 209.08 98.8461 209.008 99.2514 208.955C99.7817 208.886 100.212 208.835 100.541 208.801C100.875 208.763 101.117 208.701 101.268 208.614C101.424 208.527 101.501 208.375 101.501 208.159V208.114C101.501 207.553 101.348 207.117 101.041 206.807C100.738 206.496 100.278 206.341 99.6605 206.341C99.0204 206.341 98.5185 206.481 98.1548 206.761C97.7912 207.042 97.5355 207.341 97.3878 207.659L96.1151 207.205C96.3423 206.674 96.6454 206.261 97.0241 205.966C97.4067 205.667 97.8234 205.458 98.2741 205.341C98.7287 205.22 99.1757 205.159 99.6151 205.159C99.8954 205.159 100.217 205.193 100.581 205.261C100.948 205.326 101.303 205.46 101.643 205.665C101.988 205.869 102.274 206.178 102.501 206.591C102.729 207.004 102.842 207.557 102.842 208.25V214H101.501V212.818H101.433C101.342 213.008 101.191 213.21 100.979 213.426C100.767 213.642 100.484 213.826 100.132 213.977C99.7798 214.129 99.3499 214.205 98.8423 214.205ZM99.0469 213C99.5772 213 100.024 212.896 100.388 212.688C100.755 212.479 101.032 212.21 101.217 211.881C101.407 211.551 101.501 211.205 101.501 210.841V209.614C101.445 209.682 101.32 209.744 101.126 209.801C100.937 209.854 100.717 209.902 100.467 209.943C100.221 209.981 99.9806 210.015 99.7457 210.045C99.5147 210.072 99.3272 210.095 99.1832 210.114C98.8348 210.159 98.509 210.233 98.206 210.335C97.9067 210.434 97.6643 210.583 97.4787 210.784C97.2969 210.981 97.206 211.25 97.206 211.591C97.206 212.057 97.3783 212.409 97.723 212.648C98.0715 212.883 98.5128 213 99.0469 213ZM108.585 214.182C107.858 214.182 107.216 213.998 106.659 213.631C106.102 213.259 105.667 212.737 105.352 212.062C105.038 211.384 104.881 210.583 104.881 209.659C104.881 208.742 105.038 207.947 105.352 207.273C105.667 206.598 106.104 206.078 106.665 205.71C107.225 205.343 107.873 205.159 108.608 205.159C109.176 205.159 109.625 205.254 109.955 205.443C110.288 205.629 110.542 205.841 110.716 206.08C110.894 206.314 111.032 206.508 111.131 206.659H111.244V202.364H112.585V214H111.29V212.659H111.131C111.032 212.818 110.892 213.019 110.71 213.261C110.528 213.5 110.269 213.714 109.932 213.903C109.595 214.089 109.146 214.182 108.585 214.182ZM108.767 212.977C109.305 212.977 109.759 212.837 110.131 212.557C110.502 212.273 110.784 211.881 110.977 211.381C111.17 210.877 111.267 210.295 111.267 209.636C111.267 208.985 111.172 208.415 110.983 207.926C110.794 207.434 110.513 207.051 110.142 206.778C109.771 206.502 109.313 206.364 108.767 206.364C108.199 206.364 107.725 206.509 107.347 206.801C106.972 207.089 106.689 207.481 106.5 207.977C106.314 208.47 106.222 209.023 106.222 209.636C106.222 210.258 106.316 210.822 106.506 211.33C106.699 211.833 106.983 212.235 107.358 212.534C107.737 212.83 108.206 212.977 108.767 212.977ZM115.227 214V205.273H116.568V214H115.227ZM115.909 203.818C115.648 203.818 115.422 203.729 115.233 203.551C115.047 203.373 114.955 203.159 114.955 202.909C114.955 202.659 115.047 202.445 115.233 202.267C115.422 202.089 115.648 202 115.909 202C116.17 202 116.394 202.089 116.58 202.267C116.769 202.445 116.864 202.659 116.864 202.909C116.864 203.159 116.769 203.373 116.58 203.551C116.394 203.729 116.17 203.818 115.909 203.818ZM125.206 207.227L124.001 207.568C123.926 207.367 123.814 207.172 123.666 206.983C123.522 206.79 123.325 206.631 123.075 206.506C122.825 206.381 122.505 206.318 122.115 206.318C121.581 206.318 121.136 206.441 120.78 206.688C120.428 206.93 120.251 207.239 120.251 207.614C120.251 207.947 120.373 208.21 120.615 208.403C120.857 208.597 121.236 208.758 121.751 208.886L123.047 209.205C123.827 209.394 124.409 209.684 124.791 210.074C125.174 210.46 125.365 210.958 125.365 211.568C125.365 212.068 125.221 212.515 124.933 212.909C124.649 213.303 124.251 213.614 123.74 213.841C123.229 214.068 122.634 214.182 121.956 214.182C121.066 214.182 120.329 213.989 119.746 213.602C119.162 213.216 118.793 212.652 118.638 211.909L119.911 211.591C120.032 212.061 120.261 212.413 120.598 212.648C120.939 212.883 121.384 213 121.933 213C122.558 213 123.054 212.867 123.422 212.602C123.793 212.333 123.979 212.011 123.979 211.636C123.979 211.333 123.873 211.08 123.661 210.875C123.448 210.667 123.123 210.511 122.683 210.409L121.229 210.068C120.429 209.879 119.842 209.585 119.467 209.188C119.096 208.786 118.911 208.284 118.911 207.682C118.911 207.189 119.049 206.754 119.325 206.375C119.606 205.996 119.986 205.699 120.467 205.483C120.952 205.267 121.501 205.159 122.115 205.159C122.979 205.159 123.657 205.348 124.149 205.727C124.645 206.106 124.998 206.606 125.206 207.227ZM127.384 217.273V205.273H128.679V206.659H128.838C128.937 206.508 129.073 206.314 129.247 206.08C129.425 205.841 129.679 205.629 130.009 205.443C130.342 205.254 130.793 205.159 131.361 205.159C132.096 205.159 132.743 205.343 133.304 205.71C133.865 206.078 134.302 206.598 134.616 207.273C134.931 207.947 135.088 208.742 135.088 209.659C135.088 210.583 134.931 211.384 134.616 212.062C134.302 212.737 133.866 213.259 133.31 213.631C132.753 213.998 132.111 214.182 131.384 214.182C130.823 214.182 130.374 214.089 130.037 213.903C129.7 213.714 129.44 213.5 129.259 213.261C129.077 213.019 128.937 212.818 128.838 212.659H128.724V217.273H127.384ZM128.702 209.636C128.702 210.295 128.798 210.877 128.991 211.381C129.185 211.881 129.467 212.273 129.838 212.557C130.209 212.837 130.664 212.977 131.202 212.977C131.762 212.977 132.23 212.83 132.605 212.534C132.984 212.235 133.268 211.833 133.457 211.33C133.651 210.822 133.747 210.258 133.747 209.636C133.747 209.023 133.652 208.47 133.463 207.977C133.277 207.481 132.995 207.089 132.616 206.801C132.241 206.509 131.77 206.364 131.202 206.364C130.656 206.364 130.198 206.502 129.827 206.778C129.455 207.051 129.175 207.434 128.986 207.926C128.796 208.415 128.702 208.985 128.702 209.636ZM137.134 214V205.273H138.474V214H137.134ZM137.815 203.818C137.554 203.818 137.329 203.729 137.139 203.551C136.954 203.373 136.861 203.159 136.861 202.909C136.861 202.659 136.954 202.445 137.139 202.267C137.329 202.089 137.554 202 137.815 202C138.077 202 138.3 202.089 138.486 202.267C138.675 202.445 138.77 202.659 138.77 202.909C138.77 203.159 138.675 203.373 138.486 203.551C138.3 203.729 138.077 203.818 137.815 203.818ZM144.476 214.182C143.658 214.182 142.953 213.989 142.362 213.602C141.771 213.216 141.317 212.684 140.999 212.006C140.68 211.328 140.521 210.553 140.521 209.682C140.521 208.795 140.684 208.013 141.01 207.335C141.339 206.653 141.798 206.121 142.385 205.739C142.976 205.352 143.665 205.159 144.453 205.159C145.067 205.159 145.62 205.273 146.112 205.5C146.605 205.727 147.008 206.045 147.322 206.455C147.637 206.864 147.832 207.341 147.908 207.886H146.567C146.464 207.489 146.237 207.136 145.885 206.83C145.536 206.519 145.067 206.364 144.476 206.364C143.953 206.364 143.495 206.5 143.101 206.773C142.711 207.042 142.406 207.422 142.186 207.915C141.97 208.403 141.862 208.977 141.862 209.636C141.862 210.311 141.968 210.898 142.18 211.398C142.396 211.898 142.699 212.286 143.089 212.562C143.483 212.839 143.946 212.977 144.476 212.977C144.824 212.977 145.141 212.917 145.425 212.795C145.709 212.674 145.949 212.5 146.146 212.273C146.343 212.045 146.483 211.773 146.567 211.455H147.908C147.832 211.97 147.644 212.434 147.345 212.847C147.05 213.256 146.658 213.581 146.169 213.824C145.684 214.062 145.12 214.182 144.476 214.182ZM149.868 214V205.273H151.209V214H149.868ZM150.55 203.818C150.288 203.818 150.063 203.729 149.874 203.551C149.688 203.373 149.595 203.159 149.595 202.909C149.595 202.659 149.688 202.445 149.874 202.267C150.063 202.089 150.288 202 150.55 202C150.811 202 151.035 202.089 151.22 202.267C151.41 202.445 151.504 202.659 151.504 202.909C151.504 203.159 151.41 203.373 151.22 203.551C151.035 203.729 150.811 203.818 150.55 203.818ZM155.006 208.75V214H153.665V205.273H154.96V206.636H155.074C155.278 206.193 155.589 205.837 156.006 205.568C156.422 205.295 156.96 205.159 157.619 205.159C158.21 205.159 158.727 205.28 159.17 205.523C159.614 205.761 159.958 206.125 160.205 206.614C160.451 207.098 160.574 207.712 160.574 208.455V214H159.233V208.545C159.233 207.86 159.055 207.326 158.699 206.943C158.343 206.557 157.854 206.364 157.233 206.364C156.805 206.364 156.422 206.456 156.085 206.642C155.752 206.828 155.489 207.098 155.295 207.455C155.102 207.811 155.006 208.242 155.006 208.75ZM166.547 217.455C165.899 217.455 165.342 217.371 164.876 217.205C164.411 217.042 164.022 216.826 163.712 216.557C163.405 216.292 163.161 216.008 162.979 215.705L164.047 214.955C164.168 215.114 164.321 215.295 164.507 215.5C164.693 215.708 164.946 215.888 165.268 216.04C165.594 216.195 166.02 216.273 166.547 216.273C167.251 216.273 167.833 216.102 168.291 215.761C168.75 215.42 168.979 214.886 168.979 214.159V212.386H168.865C168.767 212.545 168.626 212.742 168.445 212.977C168.267 213.208 168.009 213.415 167.672 213.597C167.339 213.775 166.888 213.864 166.32 213.864C165.615 213.864 164.982 213.697 164.422 213.364C163.865 213.03 163.424 212.545 163.098 211.909C162.776 211.273 162.615 210.5 162.615 209.591C162.615 208.697 162.772 207.919 163.087 207.256C163.401 206.589 163.839 206.074 164.399 205.71C164.96 205.343 165.607 205.159 166.342 205.159C166.911 205.159 167.361 205.254 167.695 205.443C168.032 205.629 168.289 205.841 168.467 206.08C168.649 206.314 168.789 206.508 168.888 206.659H169.024V205.273H170.32V214.25C170.32 215 170.149 215.61 169.808 216.08C169.471 216.553 169.017 216.9 168.445 217.119C167.876 217.343 167.244 217.455 166.547 217.455ZM166.501 212.659C167.039 212.659 167.494 212.536 167.865 212.29C168.236 212.044 168.518 211.689 168.712 211.227C168.905 210.765 169.001 210.212 169.001 209.568C169.001 208.939 168.907 208.384 168.717 207.903C168.528 207.422 168.248 207.045 167.876 206.773C167.505 206.5 167.047 206.364 166.501 206.364C165.933 206.364 165.46 206.508 165.081 206.795C164.706 207.083 164.424 207.47 164.234 207.955C164.049 208.439 163.956 208.977 163.956 209.568C163.956 210.174 164.051 210.71 164.24 211.176C164.433 211.638 164.717 212.002 165.092 212.267C165.471 212.528 165.941 212.659 166.501 212.659ZM180.933 214.182C180.092 214.182 179.367 213.996 178.757 213.625C178.151 213.25 177.683 212.727 177.354 212.057C177.028 211.383 176.865 210.598 176.865 209.705C176.865 208.811 177.028 208.023 177.354 207.341C177.683 206.655 178.142 206.121 178.729 205.739C179.32 205.352 180.009 205.159 180.797 205.159C181.251 205.159 181.7 205.235 182.143 205.386C182.587 205.538 182.99 205.784 183.354 206.125C183.717 206.462 184.007 206.909 184.223 207.466C184.439 208.023 184.547 208.708 184.547 209.523V210.091H177.82V208.932H183.183C183.183 208.439 183.085 208 182.888 207.614C182.695 207.227 182.418 206.922 182.058 206.699C181.702 206.475 181.282 206.364 180.797 206.364C180.263 206.364 179.801 206.496 179.411 206.761C179.024 207.023 178.727 207.364 178.518 207.784C178.31 208.205 178.206 208.655 178.206 209.136V209.909C178.206 210.568 178.32 211.127 178.547 211.585C178.778 212.04 179.098 212.386 179.507 212.625C179.916 212.86 180.392 212.977 180.933 212.977C181.286 212.977 181.604 212.928 181.888 212.83C182.176 212.727 182.424 212.576 182.632 212.375C182.84 212.17 183.001 211.917 183.115 211.614L184.411 211.977C184.274 212.417 184.045 212.803 183.723 213.136C183.401 213.466 183.003 213.723 182.53 213.909C182.056 214.091 181.524 214.182 180.933 214.182ZM186.587 214V205.273H187.928V214H186.587ZM187.268 203.818C187.007 203.818 186.782 203.729 186.592 203.551C186.407 203.373 186.314 203.159 186.314 202.909C186.314 202.659 186.407 202.445 186.592 202.267C186.782 202.089 187.007 202 187.268 202C187.53 202 187.753 202.089 187.939 202.267C188.128 202.445 188.223 202.659 188.223 202.909C188.223 203.159 188.128 203.373 187.939 203.551C187.753 203.729 187.53 203.818 187.268 203.818ZM194.179 205.273V206.409H189.656V205.273H194.179ZM190.974 203.182H192.315V211.5C192.315 211.879 192.37 212.163 192.48 212.352C192.594 212.538 192.738 212.663 192.912 212.727C193.09 212.788 193.277 212.818 193.474 212.818C193.622 212.818 193.743 212.811 193.838 212.795C193.933 212.777 194.009 212.761 194.065 212.75L194.338 213.955C194.247 213.989 194.12 214.023 193.957 214.057C193.795 214.095 193.588 214.114 193.338 214.114C192.959 214.114 192.588 214.032 192.224 213.869C191.865 213.706 191.565 213.458 191.327 213.125C191.092 212.792 190.974 212.371 190.974 211.864V203.182ZM197.173 214.091C196.893 214.091 196.652 213.991 196.452 213.79C196.251 213.589 196.151 213.348 196.151 213.068C196.151 212.788 196.251 212.547 196.452 212.347C196.652 212.146 196.893 212.045 197.173 212.045C197.454 212.045 197.694 212.146 197.895 212.347C198.096 212.547 198.196 212.788 198.196 213.068C198.196 213.254 198.149 213.424 198.054 213.58C197.963 213.735 197.84 213.86 197.685 213.955C197.533 214.045 197.363 214.091 197.173 214.091Z" fill="black"/>
</svg>
