<svg width="163" height="203" viewBox="0 0 163 203" fill="none" xmlns="http://www.w3.org/2000/svg">
<ellipse cx="90.1991" cy="58" rx="51.8009" ry="50" stroke="#2C67FF" stroke-opacity="0.2" stroke-width="15" stroke-linejoin="round"/>
<path d="M142 58C142 44.7392 136.542 32.0215 126.828 22.6447C117.113 13.2678 103.938 8 90.1991 8C76.4606 8 63.2849 13.2678 53.5703 22.6447C43.8558 32.0215 38.3982 44.7392 38.3982 58" stroke="#2C67FF" stroke-width="15" stroke-linejoin="round"/>
<path d="M72.2538 75.1516C70.9205 75.1516 69.7197 74.8864 68.6516 74.3561C67.5834 73.8258 66.7273 73.0985 66.0834 72.1743C65.4394 71.25 65.0872 70.197 65.0266 69.0152H67.7538C67.8599 70.0682 68.3372 70.9394 69.1857 71.6288C70.0417 72.3106 71.0644 72.6516 72.2538 72.6516C73.2084 72.6516 74.0569 72.4281 74.7993 71.9811C75.5493 71.5341 76.1364 70.9205 76.5607 70.1402C76.9925 69.3523 77.2084 68.4622 77.2084 67.4697C77.2084 66.4546 76.9849 65.5493 76.5379 64.7538C76.0985 63.9508 75.4925 63.3182 74.7197 62.8561C73.947 62.394 73.0644 62.1591 72.072 62.1516C71.3599 62.144 70.6288 62.2538 69.8788 62.4811C69.1288 62.7008 68.5114 62.9849 68.0266 63.3334L65.3902 63.0152L66.7993 51.5606H78.8902V54.0606H69.1629L68.3447 60.9243H68.4811C68.9584 60.5455 69.5569 60.2311 70.2766 59.9811C70.9963 59.7311 71.7463 59.6061 72.5266 59.6061C73.9508 59.6061 75.2197 59.947 76.3334 60.6288C77.4546 61.3031 78.3334 62.2273 78.9697 63.4016C79.6137 64.5758 79.9357 65.9167 79.9357 67.4243C79.9357 68.9091 79.6023 70.2349 78.9357 71.4016C78.2766 72.5606 77.3675 73.4773 76.2084 74.1516C75.0493 74.8182 73.7311 75.1516 72.2538 75.1516ZM92.0408 75.1516C90.3287 75.1516 88.8703 74.6856 87.6658 73.7538C86.4612 72.8144 85.5408 71.4546 84.9044 69.6743C84.268 67.8864 83.9499 65.7273 83.9499 63.197C83.9499 60.6819 84.268 58.5341 84.9044 56.7538C85.5483 54.9659 86.4726 53.6023 87.6771 52.6629C88.8893 51.7159 90.3438 51.2425 92.0408 51.2425C93.7377 51.2425 95.1885 51.7159 96.393 52.6629C97.6052 53.6023 98.5294 54.9659 99.1658 56.7538C99.8097 58.5341 100.132 60.6819 100.132 63.197C100.132 65.7273 99.8135 67.8864 99.1771 69.6743C98.5408 71.4546 97.6203 72.8144 96.4158 73.7538C95.2112 74.6856 93.7529 75.1516 92.0408 75.1516ZM92.0408 72.6516C93.7377 72.6516 95.0559 71.8334 95.9953 70.197C96.9347 68.5606 97.4044 66.2273 97.4044 63.197C97.4044 61.1819 97.1885 59.4659 96.7567 58.0493C96.3324 56.6326 95.7188 55.5531 94.9158 54.8106C94.1203 54.0682 93.162 53.697 92.0408 53.697C90.359 53.697 89.0446 54.5266 88.0976 56.1856C87.1506 57.8372 86.6771 60.1743 86.6771 63.197C86.6771 65.2122 86.8893 66.9243 87.3135 68.3334C87.7377 69.7425 88.3476 70.8144 89.143 71.5493C89.9461 72.2841 90.912 72.6516 92.0408 72.6516ZM116.313 70.4697V69.2425C116.313 68.394 116.488 67.6175 116.836 66.9129C117.192 66.2008 117.707 65.6326 118.382 65.2084C119.063 64.7766 119.889 64.5606 120.859 64.5606C121.844 64.5606 122.67 64.7766 123.336 65.2084C124.003 65.6326 124.507 66.2008 124.848 66.9129C125.188 67.6175 125.359 68.394 125.359 69.2425V70.4697C125.359 71.3182 125.185 72.0985 124.836 72.8106C124.495 73.5152 123.988 74.0834 123.313 74.5152C122.647 74.9394 121.829 75.1516 120.859 75.1516C119.874 75.1516 119.045 74.9394 118.37 74.5152C117.696 74.0834 117.185 73.5152 116.836 72.8106C116.488 72.0985 116.313 71.3182 116.313 70.4697ZM118.632 69.2425V70.4697C118.632 71.1743 118.798 71.8069 119.132 72.3675C119.465 72.9205 120.041 73.197 120.859 73.197C121.654 73.197 122.215 72.9205 122.541 72.3675C122.874 71.8069 123.041 71.1743 123.041 70.4697V69.2425C123.041 68.5379 122.882 67.9091 122.563 67.3561C122.245 66.7955 121.677 66.5152 120.859 66.5152C120.063 66.5152 119.492 66.7955 119.143 67.3561C118.802 67.9091 118.632 68.5379 118.632 69.2425ZM104.723 57.1516V55.9243C104.723 55.0758 104.897 54.2993 105.245 53.5947C105.601 52.8826 106.117 52.3144 106.791 51.8902C107.473 51.4584 108.298 51.2425 109.268 51.2425C110.253 51.2425 111.079 51.4584 111.745 51.8902C112.412 52.3144 112.916 52.8826 113.257 53.5947C113.598 54.2993 113.768 55.0758 113.768 55.9243V57.1516C113.768 58 113.594 58.7803 113.245 59.4925C112.904 60.197 112.397 60.7652 111.723 61.197C111.056 61.6213 110.238 61.8334 109.268 61.8334C108.283 61.8334 107.454 61.6213 106.779 61.197C106.105 60.7652 105.594 60.197 105.245 59.4925C104.897 58.7803 104.723 58 104.723 57.1516ZM107.041 55.9243V57.1516C107.041 57.8561 107.207 58.4887 107.541 59.0493C107.874 59.6023 108.45 59.8788 109.268 59.8788C110.063 59.8788 110.624 59.6023 110.95 59.0493C111.283 58.4887 111.45 57.8561 111.45 57.1516V55.9243C111.45 55.2197 111.291 54.5909 110.973 54.0379C110.654 53.4773 110.086 53.197 109.268 53.197C108.473 53.197 107.901 53.4773 107.552 54.0379C107.211 54.5909 107.041 55.2197 107.041 55.9243ZM105.586 74.8334L121.586 51.5606H124.177L108.177 74.8334H105.586Z" fill="black"/>
<path d="M43.4091 141V129.364H44.8182V139.75H50.2273V141H43.4091ZM55.7727 141.182C54.9848 141.182 54.2936 140.994 53.6989 140.619C53.108 140.244 52.6458 139.72 52.3125 139.045C51.983 138.371 51.8182 137.583 51.8182 136.682C51.8182 135.773 51.983 134.979 52.3125 134.301C52.6458 133.623 53.108 133.097 53.6989 132.722C54.2936 132.347 54.9848 132.159 55.7727 132.159C56.5606 132.159 57.25 132.347 57.8409 132.722C58.4356 133.097 58.8977 133.623 59.2273 134.301C59.5606 134.979 59.7273 135.773 59.7273 136.682C59.7273 137.583 59.5606 138.371 59.2273 139.045C58.8977 139.72 58.4356 140.244 57.8409 140.619C57.25 140.994 56.5606 141.182 55.7727 141.182ZM55.7727 139.977C56.3712 139.977 56.8636 139.824 57.25 139.517C57.6364 139.21 57.9223 138.807 58.108 138.307C58.2936 137.807 58.3864 137.265 58.3864 136.682C58.3864 136.098 58.2936 135.555 58.108 135.051C57.9223 134.547 57.6364 134.14 57.25 133.83C56.8636 133.519 56.3712 133.364 55.7727 133.364C55.1742 133.364 54.6818 133.519 54.2955 133.83C53.9091 134.14 53.6231 134.547 53.4375 135.051C53.2519 135.555 53.1591 136.098 53.1591 136.682C53.1591 137.265 53.2519 137.807 53.4375 138.307C53.6231 138.807 53.9091 139.21 54.2955 139.517C54.6818 139.824 55.1742 139.977 55.7727 139.977ZM61.7741 141V132.273H63.0696V133.591H63.1605C63.3196 133.159 63.6075 132.809 64.0241 132.54C64.4408 132.271 64.9105 132.136 65.4332 132.136C65.5317 132.136 65.6548 132.138 65.8026 132.142C65.9503 132.146 66.062 132.152 66.1378 132.159V133.523C66.0923 133.511 65.9882 133.494 65.8253 133.472C65.6662 133.445 65.4976 133.432 65.3196 133.432C64.8954 133.432 64.5166 133.521 64.1832 133.699C63.8537 133.873 63.5923 134.116 63.3991 134.426C63.2098 134.733 63.1151 135.083 63.1151 135.477V141H61.7741ZM71.1207 141.182C70.2798 141.182 69.5545 140.996 68.9446 140.625C68.3385 140.25 67.8707 139.727 67.5412 139.057C67.2154 138.383 67.0526 137.598 67.0526 136.705C67.0526 135.811 67.2154 135.023 67.5412 134.341C67.8707 133.655 68.3291 133.121 68.9162 132.739C69.5071 132.352 70.1965 132.159 70.9844 132.159C71.4389 132.159 71.8878 132.235 72.331 132.386C72.7741 132.538 73.1776 132.784 73.5412 133.125C73.9048 133.462 74.1946 133.909 74.4105 134.466C74.6264 135.023 74.7344 135.708 74.7344 136.523V137.091H68.0071V135.932H73.3707C73.3707 135.439 73.2723 135 73.0753 134.614C72.8821 134.227 72.6056 133.922 72.2457 133.699C71.8897 133.475 71.4692 133.364 70.9844 133.364C70.4503 133.364 69.9882 133.496 69.598 133.761C69.2116 134.023 68.9143 134.364 68.706 134.784C68.4976 135.205 68.3935 135.655 68.3935 136.136V136.909C68.3935 137.568 68.5071 138.127 68.7344 138.585C68.9654 139.04 69.2855 139.386 69.6946 139.625C70.1037 139.86 70.5791 139.977 71.1207 139.977C71.473 139.977 71.7912 139.928 72.0753 139.83C72.3632 139.727 72.6113 139.576 72.8196 139.375C73.0279 139.17 73.1889 138.917 73.3026 138.614L74.598 138.977C74.4616 139.417 74.2325 139.803 73.9105 140.136C73.5885 140.466 73.1908 140.723 72.7173 140.909C72.2438 141.091 71.7116 141.182 71.1207 141.182ZM76.7741 141V132.273H78.0696V133.636H78.1832C78.3651 133.17 78.6586 132.809 79.0639 132.551C79.4692 132.29 79.956 132.159 80.5241 132.159C81.0999 132.159 81.5791 132.29 81.9616 132.551C82.348 132.809 82.6491 133.17 82.8651 133.636H82.956C83.1795 133.186 83.5147 132.828 83.9616 132.562C84.4086 132.294 84.9446 132.159 85.5696 132.159C86.3499 132.159 86.9882 132.403 87.4844 132.892C87.9806 133.377 88.2287 134.133 88.2287 135.159V141H86.8878V135.159C86.8878 134.515 86.7116 134.055 86.3594 133.778C86.0071 133.502 85.5923 133.364 85.1151 133.364C84.5014 133.364 84.026 133.549 83.6889 133.92C83.3518 134.288 83.1832 134.754 83.1832 135.318V141H81.8196V135.023C81.8196 134.527 81.6586 134.127 81.3366 133.824C81.0147 133.517 80.5999 133.364 80.0923 133.364C79.7438 133.364 79.4181 133.456 79.1151 133.642C78.8158 133.828 78.5734 134.085 78.3878 134.415C78.206 134.741 78.1151 135.117 78.1151 135.545V141H76.7741ZM95.1804 141V132.273H96.5213V141H95.1804ZM95.8622 130.818C95.6009 130.818 95.3755 130.729 95.1861 130.551C95.0005 130.373 94.9077 130.159 94.9077 129.909C94.9077 129.659 95.0005 129.445 95.1861 129.267C95.3755 129.089 95.6009 129 95.8622 129C96.1236 129 96.3471 129.089 96.5327 129.267C96.7221 129.445 96.8168 129.659 96.8168 129.909C96.8168 130.159 96.7221 130.373 96.5327 130.551C96.3471 130.729 96.1236 130.818 95.8622 130.818ZM98.9773 144.273V132.273H100.273V133.659H100.432C100.53 133.508 100.667 133.314 100.841 133.08C101.019 132.841 101.273 132.629 101.602 132.443C101.936 132.254 102.386 132.159 102.955 132.159C103.689 132.159 104.337 132.343 104.898 132.71C105.458 133.078 105.896 133.598 106.21 134.273C106.525 134.947 106.682 135.742 106.682 136.659C106.682 137.583 106.525 138.384 106.21 139.062C105.896 139.737 105.46 140.259 104.903 140.631C104.347 140.998 103.705 141.182 102.977 141.182C102.417 141.182 101.968 141.089 101.631 140.903C101.294 140.714 101.034 140.5 100.852 140.261C100.67 140.019 100.53 139.818 100.432 139.659H100.318V144.273H98.9773ZM100.295 136.636C100.295 137.295 100.392 137.877 100.585 138.381C100.778 138.881 101.061 139.273 101.432 139.557C101.803 139.837 102.258 139.977 102.795 139.977C103.356 139.977 103.824 139.83 104.199 139.534C104.578 139.235 104.862 138.833 105.051 138.33C105.244 137.822 105.341 137.258 105.341 136.636C105.341 136.023 105.246 135.47 105.057 134.977C104.871 134.481 104.589 134.089 104.21 133.801C103.835 133.509 103.364 133.364 102.795 133.364C102.25 133.364 101.792 133.502 101.42 133.778C101.049 134.051 100.769 134.434 100.58 134.926C100.39 135.415 100.295 135.985 100.295 136.636ZM114.909 134.227L113.705 134.568C113.629 134.367 113.517 134.172 113.369 133.983C113.225 133.79 113.028 133.631 112.778 133.506C112.528 133.381 112.208 133.318 111.818 133.318C111.284 133.318 110.839 133.441 110.483 133.688C110.131 133.93 109.955 134.239 109.955 134.614C109.955 134.947 110.076 135.21 110.318 135.403C110.561 135.597 110.939 135.758 111.455 135.886L112.75 136.205C113.53 136.394 114.112 136.684 114.494 137.074C114.877 137.46 115.068 137.958 115.068 138.568C115.068 139.068 114.924 139.515 114.636 139.909C114.352 140.303 113.955 140.614 113.443 140.841C112.932 141.068 112.337 141.182 111.659 141.182C110.769 141.182 110.032 140.989 109.449 140.602C108.866 140.216 108.496 139.652 108.341 138.909L109.614 138.591C109.735 139.061 109.964 139.413 110.301 139.648C110.642 139.883 111.087 140 111.636 140C112.261 140 112.758 139.867 113.125 139.602C113.496 139.333 113.682 139.011 113.682 138.636C113.682 138.333 113.576 138.08 113.364 137.875C113.152 137.667 112.826 137.511 112.386 137.409L110.932 137.068C110.133 136.879 109.545 136.585 109.17 136.188C108.799 135.786 108.614 135.284 108.614 134.682C108.614 134.189 108.752 133.754 109.028 133.375C109.309 132.996 109.689 132.699 110.17 132.483C110.655 132.267 111.205 132.159 111.818 132.159C112.682 132.159 113.36 132.348 113.852 132.727C114.348 133.106 114.701 133.606 114.909 134.227ZM122.587 137.432V132.273H123.928V141H122.587V139.523H122.496C122.291 139.966 121.973 140.343 121.541 140.653C121.109 140.96 120.564 141.114 119.905 141.114C119.359 141.114 118.875 140.994 118.45 140.756C118.026 140.513 117.693 140.15 117.45 139.665C117.208 139.176 117.087 138.561 117.087 137.818V132.273H118.428V137.727C118.428 138.364 118.606 138.871 118.962 139.25C119.321 139.629 119.78 139.818 120.337 139.818C120.67 139.818 121.009 139.733 121.354 139.562C121.702 139.392 121.994 139.131 122.229 138.778C122.467 138.426 122.587 137.977 122.587 137.432ZM126.384 141V132.273H127.679V133.636H127.793C127.974 133.17 128.268 132.809 128.673 132.551C129.079 132.29 129.565 132.159 130.134 132.159C130.709 132.159 131.188 132.29 131.571 132.551C131.957 132.809 132.259 133.17 132.474 133.636H132.565C132.789 133.186 133.124 132.828 133.571 132.562C134.018 132.294 134.554 132.159 135.179 132.159C135.959 132.159 136.598 132.403 137.094 132.892C137.59 133.377 137.838 134.133 137.838 135.159V141H136.497V135.159C136.497 134.515 136.321 134.055 135.969 133.778C135.616 133.502 135.202 133.364 134.724 133.364C134.111 133.364 133.635 133.549 133.298 133.92C132.961 134.288 132.793 134.754 132.793 135.318V141H131.429V135.023C131.429 134.527 131.268 134.127 130.946 133.824C130.624 133.517 130.209 133.364 129.702 133.364C129.353 133.364 129.027 133.456 128.724 133.642C128.425 133.828 128.183 134.085 127.997 134.415C127.815 134.741 127.724 135.117 127.724 135.545V141H126.384Z" fill="black"/>
<path d="M1.40909 161V149.364H2.81818V159.75H8.22727V161H1.40909ZM13.7727 161.182C12.9848 161.182 12.2936 160.994 11.6989 160.619C11.108 160.244 10.6458 159.72 10.3125 159.045C9.98295 158.371 9.81818 157.583 9.81818 156.682C9.81818 155.773 9.98295 154.979 10.3125 154.301C10.6458 153.623 11.108 153.097 11.6989 152.722C12.2936 152.347 12.9848 152.159 13.7727 152.159C14.5606 152.159 15.25 152.347 15.8409 152.722C16.4356 153.097 16.8977 153.623 17.2273 154.301C17.5606 154.979 17.7273 155.773 17.7273 156.682C17.7273 157.583 17.5606 158.371 17.2273 159.045C16.8977 159.72 16.4356 160.244 15.8409 160.619C15.25 160.994 14.5606 161.182 13.7727 161.182ZM13.7727 159.977C14.3712 159.977 14.8636 159.824 15.25 159.517C15.6364 159.21 15.9223 158.807 16.108 158.307C16.2936 157.807 16.3864 157.265 16.3864 156.682C16.3864 156.098 16.2936 155.555 16.108 155.051C15.9223 154.547 15.6364 154.14 15.25 153.83C14.8636 153.519 14.3712 153.364 13.7727 153.364C13.1742 153.364 12.6818 153.519 12.2955 153.83C11.9091 154.14 11.6231 154.547 11.4375 155.051C11.2519 155.555 11.1591 156.098 11.1591 156.682C11.1591 157.265 11.2519 157.807 11.4375 158.307C11.6231 158.807 11.9091 159.21 12.2955 159.517C12.6818 159.824 13.1742 159.977 13.7727 159.977ZM19.7741 161V152.273H21.0696V153.591H21.1605C21.3196 153.159 21.6075 152.809 22.0241 152.54C22.4408 152.271 22.9105 152.136 23.4332 152.136C23.5317 152.136 23.6548 152.138 23.8026 152.142C23.9503 152.146 24.062 152.152 24.1378 152.159V153.523C24.0923 153.511 23.9882 153.494 23.8253 153.472C23.6662 153.445 23.4976 153.432 23.3196 153.432C22.8954 153.432 22.5166 153.521 22.1832 153.699C21.8537 153.873 21.5923 154.116 21.3991 154.426C21.2098 154.733 21.1151 155.083 21.1151 155.477V161H19.7741ZM29.1207 161.182C28.2798 161.182 27.5545 160.996 26.9446 160.625C26.3385 160.25 25.8707 159.727 25.5412 159.057C25.2154 158.383 25.0526 157.598 25.0526 156.705C25.0526 155.811 25.2154 155.023 25.5412 154.341C25.8707 153.655 26.3291 153.121 26.9162 152.739C27.5071 152.352 28.1965 152.159 28.9844 152.159C29.4389 152.159 29.8878 152.235 30.331 152.386C30.7741 152.538 31.1776 152.784 31.5412 153.125C31.9048 153.462 32.1946 153.909 32.4105 154.466C32.6264 155.023 32.7344 155.708 32.7344 156.523V157.091H26.0071V155.932H31.3707C31.3707 155.439 31.2723 155 31.0753 154.614C30.8821 154.227 30.6056 153.922 30.2457 153.699C29.8897 153.475 29.4692 153.364 28.9844 153.364C28.4503 153.364 27.9882 153.496 27.598 153.761C27.2116 154.023 26.9143 154.364 26.706 154.784C26.4976 155.205 26.3935 155.655 26.3935 156.136V156.909C26.3935 157.568 26.5071 158.127 26.7344 158.585C26.9654 159.04 27.2855 159.386 27.6946 159.625C28.1037 159.86 28.5791 159.977 29.1207 159.977C29.473 159.977 29.7912 159.928 30.0753 159.83C30.3632 159.727 30.6113 159.576 30.8196 159.375C31.0279 159.17 31.1889 158.917 31.3026 158.614L32.598 158.977C32.4616 159.417 32.2325 159.803 31.9105 160.136C31.5885 160.466 31.1908 160.723 30.7173 160.909C30.2438 161.091 29.7116 161.182 29.1207 161.182ZM34.7741 161V152.273H36.0696V153.636H36.1832C36.3651 153.17 36.6586 152.809 37.0639 152.551C37.4692 152.29 37.956 152.159 38.5241 152.159C39.0999 152.159 39.5791 152.29 39.9616 152.551C40.348 152.809 40.6491 153.17 40.8651 153.636H40.956C41.1795 153.186 41.5147 152.828 41.9616 152.562C42.4086 152.294 42.9446 152.159 43.5696 152.159C44.3499 152.159 44.9882 152.403 45.4844 152.892C45.9806 153.377 46.2287 154.133 46.2287 155.159V161H44.8878V155.159C44.8878 154.515 44.7116 154.055 44.3594 153.778C44.0071 153.502 43.5923 153.364 43.1151 153.364C42.5014 153.364 42.026 153.549 41.6889 153.92C41.3518 154.288 41.1832 154.754 41.1832 155.318V161H39.8196V155.023C39.8196 154.527 39.6586 154.127 39.3366 153.824C39.0147 153.517 38.5999 153.364 38.0923 153.364C37.7438 153.364 37.4181 153.456 37.1151 153.642C36.8158 153.828 36.5734 154.085 36.3878 154.415C36.206 154.741 36.1151 155.117 36.1151 155.545V161H34.7741ZM53.1804 161V152.273H54.5213V161H53.1804ZM53.8622 150.818C53.6009 150.818 53.3755 150.729 53.1861 150.551C53.0005 150.373 52.9077 150.159 52.9077 149.909C52.9077 149.659 53.0005 149.445 53.1861 149.267C53.3755 149.089 53.6009 149 53.8622 149C54.1236 149 54.3471 149.089 54.5327 149.267C54.7221 149.445 54.8168 149.659 54.8168 149.909C54.8168 150.159 54.7221 150.373 54.5327 150.551C54.3471 150.729 54.1236 150.818 53.8622 150.818ZM56.9773 164.273V152.273H58.2727V153.659H58.4318C58.5303 153.508 58.6667 153.314 58.8409 153.08C59.0189 152.841 59.2727 152.629 59.6023 152.443C59.9356 152.254 60.3864 152.159 60.9545 152.159C61.6894 152.159 62.3371 152.343 62.8977 152.71C63.4583 153.078 63.8958 153.598 64.2102 154.273C64.5246 154.947 64.6818 155.742 64.6818 156.659C64.6818 157.583 64.5246 158.384 64.2102 159.062C63.8958 159.737 63.4602 160.259 62.9034 160.631C62.3466 160.998 61.7045 161.182 60.9773 161.182C60.4167 161.182 59.9678 161.089 59.6307 160.903C59.2936 160.714 59.0341 160.5 58.8523 160.261C58.6705 160.019 58.5303 159.818 58.4318 159.659H58.3182V164.273H56.9773ZM58.2955 156.636C58.2955 157.295 58.392 157.877 58.5852 158.381C58.7784 158.881 59.0606 159.273 59.4318 159.557C59.803 159.837 60.2576 159.977 60.7955 159.977C61.3561 159.977 61.8239 159.83 62.1989 159.534C62.5777 159.235 62.8617 158.833 63.0511 158.33C63.2443 157.822 63.3409 157.258 63.3409 156.636C63.3409 156.023 63.2462 155.47 63.0568 154.977C62.8712 154.481 62.589 154.089 62.2102 153.801C61.8352 153.509 61.3636 153.364 60.7955 153.364C60.25 153.364 59.7917 153.502 59.4205 153.778C59.0492 154.051 58.7689 154.434 58.5795 154.926C58.3902 155.415 58.2955 155.985 58.2955 156.636ZM72.9091 154.227L71.7045 154.568C71.6288 154.367 71.517 154.172 71.3693 153.983C71.2254 153.79 71.0284 153.631 70.7784 153.506C70.5284 153.381 70.2083 153.318 69.8182 153.318C69.2841 153.318 68.839 153.441 68.483 153.688C68.1307 153.93 67.9545 154.239 67.9545 154.614C67.9545 154.947 68.0758 155.21 68.3182 155.403C68.5606 155.597 68.9394 155.758 69.4545 155.886L70.75 156.205C71.5303 156.394 72.1117 156.684 72.4943 157.074C72.8769 157.46 73.0682 157.958 73.0682 158.568C73.0682 159.068 72.9242 159.515 72.6364 159.909C72.3523 160.303 71.9545 160.614 71.4432 160.841C70.9318 161.068 70.3371 161.182 69.6591 161.182C68.7689 161.182 68.0322 160.989 67.4489 160.602C66.8655 160.216 66.4962 159.652 66.3409 158.909L67.6136 158.591C67.7348 159.061 67.964 159.413 68.3011 159.648C68.642 159.883 69.0871 160 69.6364 160C70.2614 160 70.7576 159.867 71.125 159.602C71.4962 159.333 71.6818 159.011 71.6818 158.636C71.6818 158.333 71.5758 158.08 71.3636 157.875C71.1515 157.667 70.8258 157.511 70.3864 157.409L68.9318 157.068C68.1326 156.879 67.5455 156.585 67.1705 156.188C66.7992 155.786 66.6136 155.284 66.6136 154.682C66.6136 154.189 66.7519 153.754 67.0284 153.375C67.3087 152.996 67.6894 152.699 68.1705 152.483C68.6553 152.267 69.2045 152.159 69.8182 152.159C70.6818 152.159 71.3598 152.348 71.8523 152.727C72.3485 153.106 72.7008 153.606 72.9091 154.227ZM80.5866 157.432V152.273H81.9276V161H80.5866V159.523H80.4957C80.2912 159.966 79.973 160.343 79.5412 160.653C79.1094 160.96 78.5639 161.114 77.9048 161.114C77.3594 161.114 76.8745 160.994 76.4503 160.756C76.026 160.513 75.6927 160.15 75.4503 159.665C75.2079 159.176 75.0866 158.561 75.0866 157.818V152.273H76.4276V157.727C76.4276 158.364 76.6056 158.871 76.9616 159.25C77.3215 159.629 77.7798 159.818 78.3366 159.818C78.67 159.818 79.009 159.733 79.3537 159.562C79.7022 159.392 79.9938 159.131 80.2287 158.778C80.4673 158.426 80.5866 157.977 80.5866 157.432ZM84.3835 161V152.273H85.679V153.636H85.7926C85.9744 153.17 86.268 152.809 86.6733 152.551C87.0786 152.29 87.5653 152.159 88.1335 152.159C88.7093 152.159 89.1884 152.29 89.571 152.551C89.9574 152.809 90.2585 153.17 90.4744 153.636H90.5653C90.7888 153.186 91.1241 152.828 91.571 152.562C92.018 152.294 92.554 152.159 93.179 152.159C93.9593 152.159 94.5975 152.403 95.0938 152.892C95.59 153.377 95.8381 154.133 95.8381 155.159V161H94.4972V155.159C94.4972 154.515 94.321 154.055 93.9688 153.778C93.6165 153.502 93.2017 153.364 92.7244 153.364C92.1108 153.364 91.6354 153.549 91.2983 153.92C90.9612 154.288 90.7926 154.754 90.7926 155.318V161H89.429V155.023C89.429 154.527 89.268 154.127 88.946 153.824C88.6241 153.517 88.2093 153.364 87.7017 153.364C87.3532 153.364 87.0275 153.456 86.7244 153.642C86.4252 153.828 86.1828 154.085 85.9972 154.415C85.8153 154.741 85.7244 155.117 85.7244 155.545V161H84.3835ZM106.085 161.182C105.358 161.182 104.716 160.998 104.159 160.631C103.602 160.259 103.167 159.737 102.852 159.062C102.538 158.384 102.381 157.583 102.381 156.659C102.381 155.742 102.538 154.947 102.852 154.273C103.167 153.598 103.604 153.078 104.165 152.71C104.725 152.343 105.373 152.159 106.108 152.159C106.676 152.159 107.125 152.254 107.455 152.443C107.788 152.629 108.042 152.841 108.216 153.08C108.394 153.314 108.532 153.508 108.631 153.659H108.744V149.364H110.085V161H108.79V159.659H108.631C108.532 159.818 108.392 160.019 108.21 160.261C108.028 160.5 107.769 160.714 107.432 160.903C107.095 161.089 106.646 161.182 106.085 161.182ZM106.267 159.977C106.805 159.977 107.259 159.837 107.631 159.557C108.002 159.273 108.284 158.881 108.477 158.381C108.67 157.877 108.767 157.295 108.767 156.636C108.767 155.985 108.672 155.415 108.483 154.926C108.294 154.434 108.013 154.051 107.642 153.778C107.271 153.502 106.813 153.364 106.267 153.364C105.699 153.364 105.225 153.509 104.847 153.801C104.472 154.089 104.189 154.481 104 154.977C103.814 155.47 103.722 156.023 103.722 156.636C103.722 157.258 103.816 157.822 104.006 158.33C104.199 158.833 104.483 159.235 104.858 159.534C105.237 159.83 105.706 159.977 106.267 159.977ZM116.273 161.182C115.485 161.182 114.794 160.994 114.199 160.619C113.608 160.244 113.146 159.72 112.812 159.045C112.483 158.371 112.318 157.583 112.318 156.682C112.318 155.773 112.483 154.979 112.812 154.301C113.146 153.623 113.608 153.097 114.199 152.722C114.794 152.347 115.485 152.159 116.273 152.159C117.061 152.159 117.75 152.347 118.341 152.722C118.936 153.097 119.398 153.623 119.727 154.301C120.061 154.979 120.227 155.773 120.227 156.682C120.227 157.583 120.061 158.371 119.727 159.045C119.398 159.72 118.936 160.244 118.341 160.619C117.75 160.994 117.061 161.182 116.273 161.182ZM116.273 159.977C116.871 159.977 117.364 159.824 117.75 159.517C118.136 159.21 118.422 158.807 118.608 158.307C118.794 157.807 118.886 157.265 118.886 156.682C118.886 156.098 118.794 155.555 118.608 155.051C118.422 154.547 118.136 154.14 117.75 153.83C117.364 153.519 116.871 153.364 116.273 153.364C115.674 153.364 115.182 153.519 114.795 153.83C114.409 154.14 114.123 154.547 113.938 155.051C113.752 155.555 113.659 156.098 113.659 156.682C113.659 157.265 113.752 157.807 113.938 158.307C114.123 158.807 114.409 159.21 114.795 159.517C115.182 159.824 115.674 159.977 116.273 159.977ZM123.615 149.364V161H122.274V149.364H123.615ZM129.616 161.182C128.829 161.182 128.137 160.994 127.543 160.619C126.952 160.244 126.49 159.72 126.156 159.045C125.827 158.371 125.662 157.583 125.662 156.682C125.662 155.773 125.827 154.979 126.156 154.301C126.49 153.623 126.952 153.097 127.543 152.722C128.137 152.347 128.829 152.159 129.616 152.159C130.404 152.159 131.094 152.347 131.685 152.722C132.279 153.097 132.741 153.623 133.071 154.301C133.404 154.979 133.571 155.773 133.571 156.682C133.571 157.583 133.404 158.371 133.071 159.045C132.741 159.72 132.279 160.244 131.685 160.619C131.094 160.994 130.404 161.182 129.616 161.182ZM129.616 159.977C130.215 159.977 130.707 159.824 131.094 159.517C131.48 159.21 131.766 158.807 131.952 158.307C132.137 157.807 132.23 157.265 132.23 156.682C132.23 156.098 132.137 155.555 131.952 155.051C131.766 154.547 131.48 154.14 131.094 153.83C130.707 153.519 130.215 153.364 129.616 153.364C129.018 153.364 128.526 153.519 128.139 153.83C127.753 154.14 127.467 154.547 127.281 155.051C127.096 155.555 127.003 156.098 127.003 156.682C127.003 157.265 127.096 157.807 127.281 158.307C127.467 158.807 127.753 159.21 128.139 159.517C128.526 159.824 129.018 159.977 129.616 159.977ZM135.618 161V152.273H136.913V153.591H137.004C137.163 153.159 137.451 152.809 137.868 152.54C138.285 152.271 138.754 152.136 139.277 152.136C139.375 152.136 139.499 152.138 139.646 152.142C139.794 152.146 139.906 152.152 139.982 152.159V153.523C139.936 153.511 139.832 153.494 139.669 153.472C139.51 153.445 139.341 153.432 139.163 153.432C138.739 153.432 138.36 153.521 138.027 153.699C137.697 153.873 137.436 154.116 137.243 154.426C137.054 154.733 136.959 155.083 136.959 155.477V161H135.618ZM152.253 154.227L151.048 154.568C150.973 154.367 150.861 154.172 150.713 153.983C150.569 153.79 150.372 153.631 150.122 153.506C149.872 153.381 149.552 153.318 149.162 153.318C148.628 153.318 148.183 153.441 147.827 153.688C147.474 153.93 147.298 154.239 147.298 154.614C147.298 154.947 147.42 155.21 147.662 155.403C147.904 155.597 148.283 155.758 148.798 155.886L150.094 156.205C150.874 156.394 151.455 156.684 151.838 157.074C152.221 157.46 152.412 157.958 152.412 158.568C152.412 159.068 152.268 159.515 151.98 159.909C151.696 160.303 151.298 160.614 150.787 160.841C150.276 161.068 149.681 161.182 149.003 161.182C148.113 161.182 147.376 160.989 146.793 160.602C146.209 160.216 145.84 159.652 145.685 158.909L146.957 158.591C147.079 159.061 147.308 159.413 147.645 159.648C147.986 159.883 148.431 160 148.98 160C149.605 160 150.101 159.867 150.469 159.602C150.84 159.333 151.026 159.011 151.026 158.636C151.026 158.333 150.92 158.08 150.707 157.875C150.495 157.667 150.17 157.511 149.73 157.409L148.276 157.068C147.476 156.879 146.889 156.585 146.514 156.188C146.143 155.786 145.957 155.284 145.957 154.682C145.957 154.189 146.096 153.754 146.372 153.375C146.652 152.996 147.033 152.699 147.514 152.483C147.999 152.267 148.548 152.159 149.162 152.159C150.026 152.159 150.704 152.348 151.196 152.727C151.692 153.106 152.045 153.606 152.253 154.227ZM154.43 161V152.273H155.771V161H154.43ZM155.112 150.818C154.851 150.818 154.625 150.729 154.436 150.551C154.25 150.373 154.158 150.159 154.158 149.909C154.158 149.659 154.25 149.445 154.436 149.267C154.625 149.089 154.851 149 155.112 149C155.374 149 155.597 149.089 155.783 149.267C155.972 149.445 156.067 149.659 156.067 149.909C156.067 150.159 155.972 150.373 155.783 150.551C155.597 150.729 155.374 150.818 155.112 150.818ZM162.023 152.273V153.409H157.5V152.273H162.023ZM158.818 150.182H160.159V158.5C160.159 158.879 160.214 159.163 160.324 159.352C160.438 159.538 160.581 159.663 160.756 159.727C160.934 159.788 161.121 159.818 161.318 159.818C161.466 159.818 161.587 159.811 161.682 159.795C161.777 159.777 161.852 159.761 161.909 159.75L162.182 160.955C162.091 160.989 161.964 161.023 161.801 161.057C161.638 161.095 161.432 161.114 161.182 161.114C160.803 161.114 160.432 161.032 160.068 160.869C159.708 160.706 159.409 160.458 159.17 160.125C158.936 159.792 158.818 159.371 158.818 158.864V150.182ZM3.79545 180.205C3.24242 180.205 2.74053 180.1 2.28977 179.892C1.83902 179.68 1.48106 179.375 1.21591 178.977C0.950758 178.576 0.818182 178.091 0.818182 177.523C0.818182 177.023 0.916667 176.617 1.11364 176.307C1.31061 175.992 1.57386 175.746 1.90341 175.568C2.23295 175.39 2.59659 175.258 2.99432 175.17C3.39583 175.08 3.79924 175.008 4.20455 174.955C4.73485 174.886 5.16477 174.835 5.49432 174.801C5.82765 174.763 6.07008 174.701 6.22159 174.614C6.37689 174.527 6.45455 174.375 6.45455 174.159V174.114C6.45455 173.553 6.30114 173.117 5.99432 172.807C5.69129 172.496 5.23106 172.341 4.61364 172.341C3.97348 172.341 3.47159 172.481 3.10795 172.761C2.74432 173.042 2.48864 173.341 2.34091 173.659L1.06818 173.205C1.29545 172.674 1.59848 172.261 1.97727 171.966C2.35985 171.667 2.77652 171.458 3.22727 171.341C3.68182 171.22 4.12879 171.159 4.56818 171.159C4.84848 171.159 5.17045 171.193 5.53409 171.261C5.90152 171.326 6.25568 171.46 6.59659 171.665C6.94129 171.869 7.22727 172.178 7.45455 172.591C7.68182 173.004 7.79545 173.557 7.79545 174.25V180H6.45455V178.818H6.38636C6.29545 179.008 6.14394 179.21 5.93182 179.426C5.7197 179.642 5.4375 179.826 5.08523 179.977C4.73295 180.129 4.30303 180.205 3.79545 180.205ZM4 179C4.5303 179 4.97727 178.896 5.34091 178.688C5.70833 178.479 5.98485 178.21 6.17045 177.881C6.35985 177.551 6.45455 177.205 6.45455 176.841V175.614C6.39773 175.682 6.27273 175.744 6.07955 175.801C5.89015 175.854 5.67045 175.902 5.42045 175.943C5.17424 175.981 4.93371 176.015 4.69886 176.045C4.4678 176.072 4.2803 176.095 4.13636 176.114C3.78788 176.159 3.46212 176.233 3.15909 176.335C2.85985 176.434 2.61742 176.583 2.43182 176.784C2.25 176.981 2.15909 177.25 2.15909 177.591C2.15909 178.057 2.33144 178.409 2.67614 178.648C3.02462 178.883 3.46591 179 4 179ZM10.2429 180V171.273H11.5384V172.636H11.652C11.8338 172.17 12.1274 171.809 12.5327 171.551C12.938 171.29 13.4247 171.159 13.9929 171.159C14.5687 171.159 15.0478 171.29 15.4304 171.551C15.8168 171.809 16.1179 172.17 16.3338 172.636H16.4247C16.6482 172.186 16.9834 171.828 17.4304 171.562C17.8774 171.294 18.4134 171.159 19.0384 171.159C19.8187 171.159 20.4569 171.403 20.9531 171.892C21.4493 172.377 21.6974 173.133 21.6974 174.159V180H20.3565V174.159C20.3565 173.515 20.1804 173.055 19.8281 172.778C19.4759 172.502 19.0611 172.364 18.5838 172.364C17.9702 172.364 17.4948 172.549 17.1577 172.92C16.8205 173.288 16.652 173.754 16.652 174.318V180H15.2884V174.023C15.2884 173.527 15.1274 173.127 14.8054 172.824C14.4834 172.517 14.0687 172.364 13.5611 172.364C13.2126 172.364 12.8868 172.456 12.5838 172.642C12.2846 172.828 12.0421 173.085 11.8565 173.415C11.6747 173.741 11.5838 174.117 11.5838 174.545V180H10.2429ZM27.8082 180.182C26.9673 180.182 26.242 179.996 25.6321 179.625C25.026 179.25 24.5582 178.727 24.2287 178.057C23.9029 177.383 23.7401 176.598 23.7401 175.705C23.7401 174.811 23.9029 174.023 24.2287 173.341C24.5582 172.655 25.0166 172.121 25.6037 171.739C26.1946 171.352 26.884 171.159 27.6719 171.159C28.1264 171.159 28.5753 171.235 29.0185 171.386C29.4616 171.538 29.8651 171.784 30.2287 172.125C30.5923 172.462 30.8821 172.909 31.098 173.466C31.3139 174.023 31.4219 174.708 31.4219 175.523V176.091H24.6946V174.932H30.0582C30.0582 174.439 29.9598 174 29.7628 173.614C29.5696 173.227 29.2931 172.922 28.9332 172.699C28.5772 172.475 28.1567 172.364 27.6719 172.364C27.1378 172.364 26.6757 172.496 26.2855 172.761C25.8991 173.023 25.6018 173.364 25.3935 173.784C25.1851 174.205 25.081 174.655 25.081 175.136V175.909C25.081 176.568 25.1946 177.127 25.4219 177.585C25.6529 178.04 25.973 178.386 26.3821 178.625C26.7912 178.86 27.2666 178.977 27.8082 178.977C28.1605 178.977 28.4787 178.928 28.7628 178.83C29.0507 178.727 29.2988 178.576 29.5071 178.375C29.7154 178.17 29.8764 177.917 29.9901 177.614L31.2855 177.977C31.1491 178.417 30.92 178.803 30.598 179.136C30.276 179.466 29.8783 179.723 29.4048 179.909C28.9313 180.091 28.3991 180.182 27.8082 180.182ZM37.2571 171.273V172.409H32.7344V171.273H37.2571ZM34.0526 169.182H35.3935V177.5C35.3935 177.879 35.4484 178.163 35.5582 178.352C35.6719 178.538 35.8158 178.663 35.9901 178.727C36.1681 178.788 36.3556 178.818 36.5526 178.818C36.7003 178.818 36.8215 178.811 36.9162 178.795C37.0109 178.777 37.0866 178.761 37.1435 178.75L37.4162 179.955C37.3253 179.989 37.1984 180.023 37.0355 180.057C36.8726 180.095 36.6662 180.114 36.4162 180.114C36.0374 180.114 35.6662 180.032 35.3026 179.869C34.9427 179.706 34.6435 179.458 34.4048 179.125C34.17 178.792 34.0526 178.371 34.0526 177.864V169.182ZM41.2741 178.409L41.1832 179.023C41.1188 179.455 41.0204 179.917 40.8878 180.409C40.759 180.902 40.6245 181.366 40.4844 181.801C40.3442 182.237 40.2287 182.583 40.1378 182.841H39.1151C39.1643 182.598 39.2287 182.278 39.3082 181.881C39.3878 181.483 39.4673 181.038 39.5469 180.545C39.6302 180.057 39.6984 179.557 39.7514 179.045L39.8196 178.409H41.2741ZM51.804 180.182C50.9858 180.182 50.2813 179.989 49.6903 179.602C49.0994 179.216 48.6449 178.684 48.3267 178.006C48.0085 177.328 47.8494 176.553 47.8494 175.682C47.8494 174.795 48.0123 174.013 48.3381 173.335C48.6676 172.653 49.1259 172.121 49.7131 171.739C50.304 171.352 50.9934 171.159 51.7812 171.159C52.3949 171.159 52.9479 171.273 53.4403 171.5C53.9328 171.727 54.3362 172.045 54.6506 172.455C54.965 172.864 55.16 173.341 55.2358 173.886H53.8949C53.7926 173.489 53.5653 173.136 53.2131 172.83C52.8646 172.519 52.3949 172.364 51.804 172.364C51.2813 172.364 50.8229 172.5 50.429 172.773C50.0388 173.042 49.7339 173.422 49.5142 173.915C49.2983 174.403 49.1903 174.977 49.1903 175.636C49.1903 176.311 49.2964 176.898 49.5085 177.398C49.7244 177.898 50.0275 178.286 50.4176 178.562C50.8116 178.839 51.2737 178.977 51.804 178.977C52.1525 178.977 52.4688 178.917 52.7528 178.795C53.0369 178.674 53.2775 178.5 53.4744 178.273C53.6714 178.045 53.8116 177.773 53.8949 177.455H55.2358C55.16 177.97 54.9725 178.434 54.6733 178.847C54.3778 179.256 53.9858 179.581 53.4972 179.824C53.0123 180.062 52.4479 180.182 51.804 180.182ZM60.7415 180.182C59.9536 180.182 59.2623 179.994 58.6676 179.619C58.0767 179.244 57.6146 178.72 57.2812 178.045C56.9517 177.371 56.7869 176.583 56.7869 175.682C56.7869 174.773 56.9517 173.979 57.2812 173.301C57.6146 172.623 58.0767 172.097 58.6676 171.722C59.2623 171.347 59.9536 171.159 60.7415 171.159C61.5294 171.159 62.2188 171.347 62.8097 171.722C63.4044 172.097 63.8665 172.623 64.196 173.301C64.5294 173.979 64.696 174.773 64.696 175.682C64.696 176.583 64.5294 177.371 64.196 178.045C63.8665 178.72 63.4044 179.244 62.8097 179.619C62.2188 179.994 61.5294 180.182 60.7415 180.182ZM60.7415 178.977C61.34 178.977 61.8324 178.824 62.2188 178.517C62.6051 178.21 62.8911 177.807 63.0767 177.307C63.2623 176.807 63.3551 176.265 63.3551 175.682C63.3551 175.098 63.2623 174.555 63.0767 174.051C62.8911 173.547 62.6051 173.14 62.2188 172.83C61.8324 172.519 61.34 172.364 60.7415 172.364C60.143 172.364 59.6506 172.519 59.2642 172.83C58.8778 173.14 58.5919 173.547 58.4062 174.051C58.2206 174.555 58.1278 175.098 58.1278 175.682C58.1278 176.265 58.2206 176.807 58.4062 177.307C58.5919 177.807 58.8778 178.21 59.2642 178.517C59.6506 178.824 60.143 178.977 60.7415 178.977ZM68.0838 174.75V180H66.7429V171.273H68.0384V172.636H68.152C68.3565 172.193 68.6671 171.837 69.0838 171.568C69.5005 171.295 70.0384 171.159 70.6974 171.159C71.2884 171.159 71.8054 171.28 72.2486 171.523C72.6918 171.761 73.0365 172.125 73.2827 172.614C73.5289 173.098 73.652 173.712 73.652 174.455V180H72.3111V174.545C72.3111 173.86 72.133 173.326 71.777 172.943C71.4209 172.557 70.9323 172.364 70.3111 172.364C69.883 172.364 69.5005 172.456 69.1634 172.642C68.83 172.828 68.5668 173.098 68.3736 173.455C68.1804 173.811 68.0838 174.242 68.0838 174.75ZM82.2841 173.227L81.0795 173.568C81.0038 173.367 80.892 173.172 80.7443 172.983C80.6004 172.79 80.4034 172.631 80.1534 172.506C79.9034 172.381 79.5833 172.318 79.1932 172.318C78.6591 172.318 78.214 172.441 77.858 172.688C77.5057 172.93 77.3295 173.239 77.3295 173.614C77.3295 173.947 77.4508 174.21 77.6932 174.403C77.9356 174.597 78.3144 174.758 78.8295 174.886L80.125 175.205C80.9053 175.394 81.4867 175.684 81.8693 176.074C82.2519 176.46 82.4432 176.958 82.4432 177.568C82.4432 178.068 82.2992 178.515 82.0114 178.909C81.7273 179.303 81.3295 179.614 80.8182 179.841C80.3068 180.068 79.7121 180.182 79.0341 180.182C78.1439 180.182 77.4072 179.989 76.8239 179.602C76.2405 179.216 75.8712 178.652 75.7159 177.909L76.9886 177.591C77.1098 178.061 77.339 178.413 77.6761 178.648C78.017 178.883 78.4621 179 79.0114 179C79.6364 179 80.1326 178.867 80.5 178.602C80.8712 178.333 81.0568 178.011 81.0568 177.636C81.0568 177.333 80.9508 177.08 80.7386 176.875C80.5265 176.667 80.2008 176.511 79.7614 176.409L78.3068 176.068C77.5076 175.879 76.9205 175.585 76.5455 175.188C76.1742 174.786 75.9886 174.284 75.9886 173.682C75.9886 173.189 76.1269 172.754 76.4034 172.375C76.6837 171.996 77.0644 171.699 77.5455 171.483C78.0303 171.267 78.5795 171.159 79.1932 171.159C80.0568 171.159 80.7348 171.348 81.2273 171.727C81.7235 172.106 82.0758 172.606 82.2841 173.227ZM88.1207 180.182C87.2798 180.182 86.5545 179.996 85.9446 179.625C85.3385 179.25 84.8707 178.727 84.5412 178.057C84.2154 177.383 84.0526 176.598 84.0526 175.705C84.0526 174.811 84.2154 174.023 84.5412 173.341C84.8707 172.655 85.3291 172.121 85.9162 171.739C86.5071 171.352 87.1965 171.159 87.9844 171.159C88.4389 171.159 88.8878 171.235 89.331 171.386C89.7741 171.538 90.1776 171.784 90.5412 172.125C90.9048 172.462 91.1946 172.909 91.4105 173.466C91.6264 174.023 91.7344 174.708 91.7344 175.523V176.091H85.0071V174.932H90.3707C90.3707 174.439 90.2723 174 90.0753 173.614C89.8821 173.227 89.6056 172.922 89.2457 172.699C88.8897 172.475 88.4692 172.364 87.9844 172.364C87.4503 172.364 86.9882 172.496 86.598 172.761C86.2116 173.023 85.9143 173.364 85.706 173.784C85.4976 174.205 85.3935 174.655 85.3935 175.136V175.909C85.3935 176.568 85.5071 177.127 85.7344 177.585C85.9654 178.04 86.2855 178.386 86.6946 178.625C87.1037 178.86 87.5791 178.977 88.1207 178.977C88.473 178.977 88.7912 178.928 89.0753 178.83C89.3632 178.727 89.6113 178.576 89.8196 178.375C90.0279 178.17 90.1889 177.917 90.3026 177.614L91.598 177.977C91.4616 178.417 91.2325 178.803 90.9105 179.136C90.5885 179.466 90.1908 179.723 89.7173 179.909C89.2438 180.091 88.7116 180.182 88.1207 180.182ZM97.3196 180.182C96.5014 180.182 95.7969 179.989 95.206 179.602C94.6151 179.216 94.1605 178.684 93.8423 178.006C93.5241 177.328 93.3651 176.553 93.3651 175.682C93.3651 174.795 93.5279 174.013 93.8537 173.335C94.1832 172.653 94.6416 172.121 95.2287 171.739C95.8196 171.352 96.509 171.159 97.2969 171.159C97.9105 171.159 98.4635 171.273 98.956 171.5C99.4484 171.727 99.8518 172.045 100.166 172.455C100.481 172.864 100.676 173.341 100.751 173.886H99.4105C99.3082 173.489 99.081 173.136 98.7287 172.83C98.3802 172.519 97.9105 172.364 97.3196 172.364C96.7969 172.364 96.3385 172.5 95.9446 172.773C95.5545 173.042 95.2495 173.422 95.0298 173.915C94.8139 174.403 94.706 174.977 94.706 175.636C94.706 176.311 94.812 176.898 95.0241 177.398C95.2401 177.898 95.5431 178.286 95.9332 178.562C96.3272 178.839 96.7893 178.977 97.3196 178.977C97.6681 178.977 97.9844 178.917 98.2685 178.795C98.5526 178.674 98.7931 178.5 98.9901 178.273C99.187 178.045 99.3272 177.773 99.4105 177.455H100.751C100.676 177.97 100.488 178.434 100.189 178.847C99.8935 179.256 99.5014 179.581 99.0128 179.824C98.5279 180.062 97.9635 180.182 97.3196 180.182ZM106.507 171.273V172.409H101.984V171.273H106.507ZM103.303 169.182H104.643V177.5C104.643 177.879 104.698 178.163 104.808 178.352C104.922 178.538 105.066 178.663 105.24 178.727C105.418 178.788 105.606 178.818 105.803 178.818C105.95 178.818 106.071 178.811 106.166 178.795C106.261 178.777 106.337 178.761 106.393 178.75L106.666 179.955C106.575 179.989 106.448 180.023 106.286 180.057C106.123 180.095 105.916 180.114 105.666 180.114C105.287 180.114 104.916 180.032 104.553 179.869C104.193 179.706 103.893 179.458 103.655 179.125C103.42 178.792 103.303 178.371 103.303 177.864V169.182ZM112.089 180.182C111.249 180.182 110.523 179.996 109.913 179.625C109.307 179.25 108.839 178.727 108.51 178.057C108.184 177.383 108.021 176.598 108.021 175.705C108.021 174.811 108.184 174.023 108.51 173.341C108.839 172.655 109.298 172.121 109.885 171.739C110.476 171.352 111.165 171.159 111.953 171.159C112.408 171.159 112.857 171.235 113.3 171.386C113.743 171.538 114.146 171.784 114.51 172.125C114.874 172.462 115.163 172.909 115.379 173.466C115.595 174.023 115.703 174.708 115.703 175.523V176.091H108.976V174.932H114.339C114.339 174.439 114.241 174 114.044 173.614C113.851 173.227 113.574 172.922 113.214 172.699C112.858 172.475 112.438 172.364 111.953 172.364C111.419 172.364 110.957 172.496 110.567 172.761C110.18 173.023 109.883 173.364 109.675 173.784C109.466 174.205 109.362 174.655 109.362 175.136V175.909C109.362 176.568 109.476 177.127 109.703 177.585C109.934 178.04 110.254 178.386 110.663 178.625C111.072 178.86 111.548 178.977 112.089 178.977C112.442 178.977 112.76 178.928 113.044 178.83C113.332 178.727 113.58 178.576 113.788 178.375C113.997 178.17 114.158 177.917 114.271 177.614L115.567 177.977C115.43 178.417 115.201 178.803 114.879 179.136C114.557 179.466 114.16 179.723 113.686 179.909C113.213 180.091 112.68 180.182 112.089 180.182ZM121.538 171.273V172.409H117.016V171.273H121.538ZM118.334 169.182H119.675V177.5C119.675 177.879 119.73 178.163 119.839 178.352C119.953 178.538 120.097 178.663 120.271 178.727C120.449 178.788 120.637 178.818 120.834 178.818C120.982 178.818 121.103 178.811 121.197 178.795C121.292 178.777 121.368 178.761 121.425 178.75L121.697 179.955C121.607 179.989 121.48 180.023 121.317 180.057C121.154 180.095 120.947 180.114 120.697 180.114C120.319 180.114 119.947 180.032 119.584 179.869C119.224 179.706 118.925 179.458 118.686 179.125C118.451 178.792 118.334 178.371 118.334 177.864V169.182ZM129.055 176.432V171.273H130.396V180H129.055V178.523H128.964C128.76 178.966 128.442 179.343 128.01 179.653C127.578 179.96 127.033 180.114 126.374 180.114C125.828 180.114 125.343 179.994 124.919 179.756C124.495 179.513 124.161 179.15 123.919 178.665C123.677 178.176 123.555 177.561 123.555 176.818V171.273H124.896V176.727C124.896 177.364 125.074 177.871 125.43 178.25C125.79 178.629 126.249 178.818 126.805 178.818C127.139 178.818 127.478 178.733 127.822 178.562C128.171 178.392 128.463 178.131 128.697 177.778C128.936 177.426 129.055 176.977 129.055 176.432ZM132.852 180V171.273H134.148V172.591H134.239C134.398 172.159 134.686 171.809 135.102 171.54C135.519 171.271 135.989 171.136 136.511 171.136C136.61 171.136 136.733 171.138 136.881 171.142C137.028 171.146 137.14 171.152 137.216 171.159V172.523C137.17 172.511 137.066 172.494 136.903 172.472C136.744 172.445 136.576 172.432 136.398 172.432C135.973 172.432 135.595 172.521 135.261 172.699C134.932 172.873 134.67 173.116 134.477 173.426C134.288 173.733 134.193 174.083 134.193 174.477V180H132.852ZM3.79545 199.205C3.24242 199.205 2.74053 199.1 2.28977 198.892C1.83902 198.68 1.48106 198.375 1.21591 197.977C0.950758 197.576 0.818182 197.091 0.818182 196.523C0.818182 196.023 0.916667 195.617 1.11364 195.307C1.31061 194.992 1.57386 194.746 1.90341 194.568C2.23295 194.39 2.59659 194.258 2.99432 194.17C3.39583 194.08 3.79924 194.008 4.20455 193.955C4.73485 193.886 5.16477 193.835 5.49432 193.801C5.82765 193.763 6.07008 193.701 6.22159 193.614C6.37689 193.527 6.45455 193.375 6.45455 193.159V193.114C6.45455 192.553 6.30114 192.117 5.99432 191.807C5.69129 191.496 5.23106 191.341 4.61364 191.341C3.97348 191.341 3.47159 191.481 3.10795 191.761C2.74432 192.042 2.48864 192.341 2.34091 192.659L1.06818 192.205C1.29545 191.674 1.59848 191.261 1.97727 190.966C2.35985 190.667 2.77652 190.458 3.22727 190.341C3.68182 190.22 4.12879 190.159 4.56818 190.159C4.84848 190.159 5.17045 190.193 5.53409 190.261C5.90152 190.326 6.25568 190.46 6.59659 190.665C6.94129 190.869 7.22727 191.178 7.45455 191.591C7.68182 192.004 7.79545 192.557 7.79545 193.25V199H6.45455V197.818H6.38636C6.29545 198.008 6.14394 198.21 5.93182 198.426C5.7197 198.642 5.4375 198.826 5.08523 198.977C4.73295 199.129 4.30303 199.205 3.79545 199.205ZM4 198C4.5303 198 4.97727 197.896 5.34091 197.688C5.70833 197.479 5.98485 197.21 6.17045 196.881C6.35985 196.551 6.45455 196.205 6.45455 195.841V194.614C6.39773 194.682 6.27273 194.744 6.07955 194.801C5.89015 194.854 5.67045 194.902 5.42045 194.943C5.17424 194.981 4.93371 195.015 4.69886 195.045C4.4678 195.072 4.2803 195.095 4.13636 195.114C3.78788 195.159 3.46212 195.233 3.15909 195.335C2.85985 195.434 2.61742 195.583 2.43182 195.784C2.25 195.981 2.15909 196.25 2.15909 196.591C2.15909 197.057 2.33144 197.409 2.67614 197.648C3.02462 197.883 3.46591 198 4 198ZM13.5384 199.182C12.8111 199.182 12.169 198.998 11.6122 198.631C11.0554 198.259 10.6198 197.737 10.3054 197.062C9.991 196.384 9.83381 195.583 9.83381 194.659C9.83381 193.742 9.991 192.947 10.3054 192.273C10.6198 191.598 11.0573 191.078 11.6179 190.71C12.1785 190.343 12.8262 190.159 13.5611 190.159C14.1293 190.159 14.5781 190.254 14.9077 190.443C15.241 190.629 15.4948 190.841 15.669 191.08C15.8471 191.314 15.9853 191.508 16.0838 191.659H16.1974V187.364H17.5384V199H16.2429V197.659H16.0838C15.9853 197.818 15.8452 198.019 15.6634 198.261C15.4815 198.5 15.2221 198.714 14.8849 198.903C14.5478 199.089 14.099 199.182 13.5384 199.182ZM13.7202 197.977C14.258 197.977 14.7126 197.837 15.0838 197.557C15.455 197.273 15.7372 196.881 15.9304 196.381C16.1236 195.877 16.2202 195.295 16.2202 194.636C16.2202 193.985 16.1255 193.415 15.9361 192.926C15.7467 192.434 15.4664 192.051 15.0952 191.778C14.724 191.502 14.2656 191.364 13.7202 191.364C13.152 191.364 12.6785 191.509 12.2997 191.801C11.9247 192.089 11.6425 192.481 11.4531 192.977C11.2675 193.47 11.1747 194.023 11.1747 194.636C11.1747 195.258 11.2694 195.822 11.4588 196.33C11.652 196.833 11.9361 197.235 12.3111 197.534C12.6899 197.83 13.1596 197.977 13.7202 197.977ZM20.1804 199V190.273H21.5213V199H20.1804ZM20.8622 188.818C20.6009 188.818 20.3755 188.729 20.1861 188.551C20.0005 188.373 19.9077 188.159 19.9077 187.909C19.9077 187.659 20.0005 187.445 20.1861 187.267C20.3755 187.089 20.6009 187 20.8622 187C21.1236 187 21.3471 187.089 21.5327 187.267C21.7221 187.445 21.8168 187.659 21.8168 187.909C21.8168 188.159 21.7221 188.373 21.5327 188.551C21.3471 188.729 21.1236 188.818 20.8622 188.818ZM30.1591 192.227L28.9545 192.568C28.8788 192.367 28.767 192.172 28.6193 191.983C28.4754 191.79 28.2784 191.631 28.0284 191.506C27.7784 191.381 27.4583 191.318 27.0682 191.318C26.5341 191.318 26.089 191.441 25.733 191.688C25.3807 191.93 25.2045 192.239 25.2045 192.614C25.2045 192.947 25.3258 193.21 25.5682 193.403C25.8106 193.597 26.1894 193.758 26.7045 193.886L28 194.205C28.7803 194.394 29.3617 194.684 29.7443 195.074C30.1269 195.46 30.3182 195.958 30.3182 196.568C30.3182 197.068 30.1742 197.515 29.8864 197.909C29.6023 198.303 29.2045 198.614 28.6932 198.841C28.1818 199.068 27.5871 199.182 26.9091 199.182C26.0189 199.182 25.2822 198.989 24.6989 198.602C24.1155 198.216 23.7462 197.652 23.5909 196.909L24.8636 196.591C24.9848 197.061 25.214 197.413 25.5511 197.648C25.892 197.883 26.3371 198 26.8864 198C27.5114 198 28.0076 197.867 28.375 197.602C28.7462 197.333 28.9318 197.011 28.9318 196.636C28.9318 196.333 28.8258 196.08 28.6136 195.875C28.4015 195.667 28.0758 195.511 27.6364 195.409L26.1818 195.068C25.3826 194.879 24.7955 194.585 24.4205 194.188C24.0492 193.786 23.8636 193.284 23.8636 192.682C23.8636 192.189 24.0019 191.754 24.2784 191.375C24.5587 190.996 24.9394 190.699 25.4205 190.483C25.9053 190.267 26.4545 190.159 27.0682 190.159C27.9318 190.159 28.6098 190.348 29.1023 190.727C29.5985 191.106 29.9508 191.606 30.1591 192.227ZM32.3366 202.273V190.273H33.6321V191.659H33.7912C33.8897 191.508 34.026 191.314 34.2003 191.08C34.3783 190.841 34.6321 190.629 34.9616 190.443C35.295 190.254 35.7457 190.159 36.3139 190.159C37.0488 190.159 37.6965 190.343 38.2571 190.71C38.8177 191.078 39.2552 191.598 39.5696 192.273C39.884 192.947 40.0412 193.742 40.0412 194.659C40.0412 195.583 39.884 196.384 39.5696 197.062C39.2552 197.737 38.8196 198.259 38.2628 198.631C37.706 198.998 37.0639 199.182 36.3366 199.182C35.776 199.182 35.3272 199.089 34.9901 198.903C34.6529 198.714 34.3935 198.5 34.2116 198.261C34.0298 198.019 33.8897 197.818 33.7912 197.659H33.6776V202.273H32.3366ZM33.6548 194.636C33.6548 195.295 33.7514 195.877 33.9446 196.381C34.1378 196.881 34.42 197.273 34.7912 197.557C35.1624 197.837 35.617 197.977 36.1548 197.977C36.7154 197.977 37.1832 197.83 37.5582 197.534C37.937 197.235 38.2211 196.833 38.4105 196.33C38.6037 195.822 38.7003 195.258 38.7003 194.636C38.7003 194.023 38.6056 193.47 38.4162 192.977C38.2306 192.481 37.9484 192.089 37.5696 191.801C37.1946 191.509 36.723 191.364 36.1548 191.364C35.6094 191.364 35.151 191.502 34.7798 191.778C34.4086 192.051 34.1283 192.434 33.9389 192.926C33.7495 193.415 33.6548 193.985 33.6548 194.636ZM42.0866 199V190.273H43.4276V199H42.0866ZM42.7685 188.818C42.5071 188.818 42.2817 188.729 42.0923 188.551C41.9067 188.373 41.8139 188.159 41.8139 187.909C41.8139 187.659 41.9067 187.445 42.0923 187.267C42.2817 187.089 42.5071 187 42.7685 187C43.0298 187 43.2533 187.089 43.4389 187.267C43.6283 187.445 43.723 187.659 43.723 187.909C43.723 188.159 43.6283 188.373 43.4389 188.551C43.2533 188.729 43.0298 188.818 42.7685 188.818ZM49.429 199.182C48.6108 199.182 47.9063 198.989 47.3153 198.602C46.7244 198.216 46.2699 197.684 45.9517 197.006C45.6335 196.328 45.4744 195.553 45.4744 194.682C45.4744 193.795 45.6373 193.013 45.9631 192.335C46.2926 191.653 46.7509 191.121 47.3381 190.739C47.929 190.352 48.6184 190.159 49.4062 190.159C50.0199 190.159 50.5729 190.273 51.0653 190.5C51.5578 190.727 51.9612 191.045 52.2756 191.455C52.59 191.864 52.785 192.341 52.8608 192.886H51.5199C51.4176 192.489 51.1903 192.136 50.8381 191.83C50.4896 191.519 50.0199 191.364 49.429 191.364C48.9063 191.364 48.4479 191.5 48.054 191.773C47.6638 192.042 47.3589 192.422 47.1392 192.915C46.9233 193.403 46.8153 193.977 46.8153 194.636C46.8153 195.311 46.9214 195.898 47.1335 196.398C47.3494 196.898 47.6525 197.286 48.0426 197.562C48.4366 197.839 48.8987 197.977 49.429 197.977C49.7775 197.977 50.0938 197.917 50.3778 197.795C50.6619 197.674 50.9025 197.5 51.0994 197.273C51.2964 197.045 51.4366 196.773 51.5199 196.455H52.8608C52.785 196.97 52.5975 197.434 52.2983 197.847C52.0028 198.256 51.6108 198.581 51.1222 198.824C50.6373 199.062 50.0729 199.182 49.429 199.182ZM54.821 199V190.273H56.1619V199H54.821ZM55.5028 188.818C55.2415 188.818 55.0161 188.729 54.8267 188.551C54.6411 188.373 54.5483 188.159 54.5483 187.909C54.5483 187.659 54.6411 187.445 54.8267 187.267C55.0161 187.089 55.2415 187 55.5028 187C55.7642 187 55.9877 187.089 56.1733 187.267C56.3627 187.445 56.4574 187.659 56.4574 187.909C56.4574 188.159 56.3627 188.373 56.1733 188.551C55.9877 188.729 55.7642 188.818 55.5028 188.818ZM59.9588 193.75V199H58.6179V190.273H59.9134V191.636H60.027C60.2315 191.193 60.5421 190.837 60.9588 190.568C61.3755 190.295 61.9134 190.159 62.5724 190.159C63.1634 190.159 63.6804 190.28 64.1236 190.523C64.5668 190.761 64.9115 191.125 65.1577 191.614C65.4039 192.098 65.527 192.712 65.527 193.455V199H64.1861V193.545C64.1861 192.86 64.008 192.326 63.652 191.943C63.2959 191.557 62.8073 191.364 62.1861 191.364C61.758 191.364 61.3755 191.456 61.0384 191.642C60.705 191.828 60.4418 192.098 60.2486 192.455C60.0554 192.811 59.9588 193.242 59.9588 193.75ZM71.5 202.455C70.8523 202.455 70.2955 202.371 69.8295 202.205C69.3636 202.042 68.9754 201.826 68.6648 201.557C68.358 201.292 68.1136 201.008 67.9318 200.705L69 199.955C69.1212 200.114 69.2746 200.295 69.4602 200.5C69.6458 200.708 69.8996 200.888 70.2216 201.04C70.5473 201.195 70.9735 201.273 71.5 201.273C72.2045 201.273 72.786 201.102 73.2443 200.761C73.7027 200.42 73.9318 199.886 73.9318 199.159V197.386H73.8182C73.7197 197.545 73.5795 197.742 73.3977 197.977C73.2197 198.208 72.9621 198.415 72.625 198.597C72.2917 198.775 71.8409 198.864 71.2727 198.864C70.5682 198.864 69.9356 198.697 69.375 198.364C68.8182 198.03 68.3769 197.545 68.0511 196.909C67.7292 196.273 67.5682 195.5 67.5682 194.591C67.5682 193.697 67.7254 192.919 68.0398 192.256C68.3542 191.589 68.7917 191.074 69.3523 190.71C69.9129 190.343 70.5606 190.159 71.2955 190.159C71.8636 190.159 72.3144 190.254 72.6477 190.443C72.9848 190.629 73.2424 190.841 73.4205 191.08C73.6023 191.314 73.7424 191.508 73.8409 191.659H73.9773V190.273H75.2727V199.25C75.2727 200 75.1023 200.61 74.7614 201.08C74.4242 201.553 73.9697 201.9 73.3977 202.119C72.8295 202.343 72.197 202.455 71.5 202.455ZM71.4545 197.659C71.9924 197.659 72.447 197.536 72.8182 197.29C73.1894 197.044 73.4716 196.689 73.6648 196.227C73.858 195.765 73.9545 195.212 73.9545 194.568C73.9545 193.939 73.8598 193.384 73.6705 192.903C73.4811 192.422 73.2008 192.045 72.8295 191.773C72.4583 191.5 72 191.364 71.4545 191.364C70.8864 191.364 70.4129 191.508 70.0341 191.795C69.6591 192.083 69.3769 192.47 69.1875 192.955C69.0019 193.439 68.9091 193.977 68.9091 194.568C68.9091 195.174 69.0038 195.71 69.1932 196.176C69.3864 196.638 69.6705 197.002 70.0455 197.267C70.4242 197.528 70.8939 197.659 71.4545 197.659ZM85.8864 199.182C85.0455 199.182 84.3201 198.996 83.7102 198.625C83.1042 198.25 82.6364 197.727 82.3068 197.057C81.9811 196.383 81.8182 195.598 81.8182 194.705C81.8182 193.811 81.9811 193.023 82.3068 192.341C82.6364 191.655 83.0947 191.121 83.6818 190.739C84.2727 190.352 84.9621 190.159 85.75 190.159C86.2045 190.159 86.6534 190.235 87.0966 190.386C87.5398 190.538 87.9432 190.784 88.3068 191.125C88.6705 191.462 88.9602 191.909 89.1761 192.466C89.392 193.023 89.5 193.708 89.5 194.523V195.091H82.7727V193.932H88.1364C88.1364 193.439 88.0379 193 87.8409 192.614C87.6477 192.227 87.3712 191.922 87.0114 191.699C86.6553 191.475 86.2348 191.364 85.75 191.364C85.2159 191.364 84.7538 191.496 84.3636 191.761C83.9773 192.023 83.6799 192.364 83.4716 192.784C83.2633 193.205 83.1591 193.655 83.1591 194.136V194.909C83.1591 195.568 83.2727 196.127 83.5 196.585C83.7311 197.04 84.0511 197.386 84.4602 197.625C84.8693 197.86 85.3447 197.977 85.8864 197.977C86.2386 197.977 86.5568 197.928 86.8409 197.83C87.1288 197.727 87.3769 197.576 87.5852 197.375C87.7936 197.17 87.9545 196.917 88.0682 196.614L89.3636 196.977C89.2273 197.417 88.9981 197.803 88.6761 198.136C88.3542 198.466 87.9564 198.723 87.483 198.909C87.0095 199.091 86.4773 199.182 85.8864 199.182ZM91.5398 199V190.273H92.8807V199H91.5398ZM92.2216 188.818C91.9602 188.818 91.7348 188.729 91.5455 188.551C91.3598 188.373 91.267 188.159 91.267 187.909C91.267 187.659 91.3598 187.445 91.5455 187.267C91.7348 187.089 91.9602 187 92.2216 187C92.483 187 92.7064 187.089 92.892 187.267C93.0814 187.445 93.1761 187.659 93.1761 187.909C93.1761 188.159 93.0814 188.373 92.892 188.551C92.7064 188.729 92.483 188.818 92.2216 188.818ZM99.1321 190.273V191.409H94.6094V190.273H99.1321ZM95.9276 188.182H97.2685V196.5C97.2685 196.879 97.3234 197.163 97.4332 197.352C97.5469 197.538 97.6908 197.663 97.8651 197.727C98.0431 197.788 98.2306 197.818 98.4276 197.818C98.5753 197.818 98.6965 197.811 98.7912 197.795C98.8859 197.777 98.9616 197.761 99.0185 197.75L99.2912 198.955C99.2003 198.989 99.0734 199.023 98.9105 199.057C98.7476 199.095 98.5412 199.114 98.2912 199.114C97.9124 199.114 97.5412 199.032 97.1776 198.869C96.8177 198.706 96.5185 198.458 96.2798 198.125C96.045 197.792 95.9276 197.371 95.9276 196.864V188.182ZM102.126 199.091C101.846 199.091 101.606 198.991 101.405 198.79C101.204 198.589 101.104 198.348 101.104 198.068C101.104 197.788 101.204 197.547 101.405 197.347C101.606 197.146 101.846 197.045 102.126 197.045C102.407 197.045 102.647 197.146 102.848 197.347C103.049 197.547 103.149 197.788 103.149 198.068C103.149 198.254 103.102 198.424 103.007 198.58C102.916 198.735 102.793 198.86 102.638 198.955C102.486 199.045 102.316 199.091 102.126 199.091Z" fill="black"/>
</svg>
