<svg width="19" height="19" viewBox="0 0 19 19" fill="none" xmlns="http://www.w3.org/2000/svg">
<path d="M3.5625 5.04688C3.5625 4.18078 3.90656 3.35015 4.51898 2.73773C5.1314 2.12531 5.96203 1.78125 6.82813 1.78125C7.69422 1.78125 8.52485 2.12531 9.13727 2.73773C9.74969 3.35015 10.0938 4.18078 10.0938 5.04688C10.0938 5.91297 9.74969 6.7436 9.13727 7.35602C8.52485 7.96844 7.69422 8.3125 6.82813 8.3125C5.96203 8.3125 5.1314 7.96844 4.51898 7.35602C3.90656 6.7436 3.5625 5.91297 3.5625 5.04688ZM11.2813 6.82813C11.2813 6.47725 11.3504 6.12981 11.4846 5.80564C11.6189 5.48148 11.8157 5.18693 12.0638 4.93882C12.3119 4.69072 12.6065 4.49391 12.9306 4.35963C13.2548 4.22536 13.6022 4.15625 13.9531 4.15625C14.304 4.15625 14.6514 4.22536 14.9756 4.35963C15.2998 4.49391 15.5943 4.69072 15.8424 4.93882C16.0905 5.18693 16.2873 5.48148 16.4216 5.80564C16.5559 6.12981 16.625 6.47725 16.625 6.82813C16.625 7.53675 16.3435 8.21635 15.8424 8.71743C15.3414 9.2185 14.6618 9.5 13.9531 9.5C13.2445 9.5 12.5649 9.2185 12.0638 8.71743C11.5628 8.21635 11.2813 7.53675 11.2813 6.82813ZM1.1875 15.1406C1.1875 13.6446 1.78178 12.2099 2.8396 11.1521C3.89742 10.0943 5.33214 9.5 6.82813 9.5C8.32411 9.5 9.75883 10.0943 10.8166 11.1521C11.8745 12.2099 12.4688 13.6446 12.4688 15.1406V15.143L12.468 15.2372C12.4663 15.3379 12.439 15.4365 12.3888 15.5237C12.3385 15.611 12.2668 15.684 12.1806 15.736C10.565 16.7089 8.71409 17.2216 6.82813 17.2188C4.87113 17.2188 3.03921 16.6773 1.47646 15.736C1.39005 15.6841 1.31826 15.6111 1.26784 15.5239C1.21743 15.4366 1.19005 15.338 1.18829 15.2372L1.1875 15.1406ZM13.6563 15.143L13.6555 15.257C13.651 15.5209 13.588 15.7805 13.471 16.017C14.853 16.1022 16.2334 15.8267 17.4768 15.2174C17.573 15.1704 17.6547 15.0983 17.7132 15.0087C17.7717 14.9191 17.8049 14.8153 17.8093 14.7084C17.8373 14.0444 17.6933 13.3844 17.3913 12.7923C17.0893 12.2003 16.6395 11.6963 16.0855 11.3291C15.5315 10.962 14.8921 10.7441 14.2292 10.6966C13.5663 10.6491 12.9024 10.7736 12.3017 11.058C13.183 12.2365 13.658 13.6691 13.6555 15.1406L13.6563 15.143Z" fill="white"/>
</svg>
