<svg width="20" height="20" viewBox="0 0 20 20" fill="none" xmlns="http://www.w3.org/2000/svg">
<path fill-rule="evenodd" clip-rule="evenodd" d="M4.6875 1.25C3.82417 1.25 3.125 1.95 3.125 2.8125V17.1875C3.125 18.05 3.825 18.75 4.6875 18.75H15.3125C16.175 18.75 16.875 18.05 16.875 17.1875V10.625C16.875 9.7962 16.5458 9.00134 15.9597 8.41529C15.3737 7.82924 14.5788 7.5 13.75 7.5H12.1875C11.7731 7.5 11.3757 7.33538 11.0826 7.04235C10.7896 6.74933 10.625 6.3519 10.625 5.9375V4.375C10.625 3.5462 10.2958 2.75134 9.70971 2.16529C9.12366 1.57924 8.3288 1.25 7.5 1.25H4.6875ZM6.25 12.5C6.25 12.3342 6.31585 12.1753 6.43306 12.0581C6.55027 11.9408 6.70924 11.875 6.875 11.875H13.125C13.2908 11.875 13.4497 11.9408 13.5669 12.0581C13.6842 12.1753 13.75 12.3342 13.75 12.5C13.75 12.6658 13.6842 12.8247 13.5669 12.9419C13.4497 13.0592 13.2908 13.125 13.125 13.125H6.875C6.70924 13.125 6.55027 13.0592 6.43306 12.9419C6.31585 12.8247 6.25 12.6658 6.25 12.5ZM6.875 14.375C6.70924 14.375 6.55027 14.4408 6.43306 14.5581C6.31585 14.6753 6.25 14.8342 6.25 15C6.25 15.1658 6.31585 15.3247 6.43306 15.4419C6.55027 15.5592 6.70924 15.625 6.875 15.625H10C10.1658 15.625 10.3247 15.5592 10.4419 15.4419C10.5592 15.3247 10.625 15.1658 10.625 15C10.625 14.8342 10.5592 14.6753 10.4419 14.5581C10.3247 14.4408 10.1658 14.375 10 14.375H6.875Z" fill="white"/>
<path d="M10.8091 1.51334C11.4978 2.30747 11.8764 3.32379 11.8749 4.375V5.9375C11.8749 6.11 12.0149 6.25 12.1874 6.25H13.7499C14.8011 6.24854 15.8174 6.62707 16.6116 7.31584C16.2449 5.92143 15.5145 4.64942 14.495 3.62991C13.4755 2.6104 12.2035 1.87997 10.8091 1.51334Z" fill="white"/>
</svg>
