<svg width="20" height="20" viewBox="0 0 20 20" fill="none" xmlns="http://www.w3.org/2000/svg">
<path fill-rule="evenodd" clip-rule="evenodd" d="M5.76 2.5C5.22524 2.4999 4.70454 2.67127 4.27436 2.98895C3.84419 3.30663 3.52722 3.75387 3.37 4.265L1.36083 10.7967C1.28747 11.0348 1.25011 11.2825 1.25 11.5317V15C1.25 15.663 1.51339 16.2989 1.98223 16.7678C2.45107 17.2366 3.08696 17.5 3.75 17.5H16.25C16.913 17.5 17.5489 17.2366 18.0178 16.7678C18.4866 16.2989 18.75 15.663 18.75 15V11.5317C18.75 11.2825 18.7125 11.035 18.6392 10.7967L16.6292 4.265C16.472 3.75401 16.1551 3.30686 15.7251 2.9892C15.2951 2.67153 14.7746 2.50007 14.24 2.5H5.76ZM17.2792 10.625L15.435 4.6325C15.3564 4.37694 15.1979 4.15331 14.9828 3.99447C14.7677 3.83563 14.5074 3.74995 14.24 3.75H5.76C5.49262 3.74995 5.23227 3.83563 5.01718 3.99447C4.8021 4.15331 4.64361 4.37694 4.565 4.6325L2.72083 10.625H5.09167C5.55602 10.6249 6.01123 10.7541 6.40628 10.9981C6.80133 11.2421 7.12061 11.5914 7.32833 12.0067L7.54167 12.4342C7.64553 12.6418 7.80517 12.8164 8.00269 12.9385C8.20022 13.0605 8.42782 13.1251 8.66 13.125H11.3417C11.5739 13.125 11.8016 13.0603 11.9991 12.9381C12.1967 12.8159 12.3563 12.6411 12.46 12.4333L12.6733 12.0067C12.8811 11.5914 13.2003 11.2421 13.5954 10.9981C13.9904 10.7541 14.4456 10.6249 14.91 10.625H17.2792Z" fill="white"/>
</svg>
