<svg width="19" height="19" viewBox="0 0 19 19" fill="none" xmlns="http://www.w3.org/2000/svg">
<path fill-rule="evenodd" clip-rule="evenodd" d="M5.93754 4.75C5.93754 3.80517 6.31287 2.89903 6.98097 2.23093C7.64907 1.56283 8.5552 1.1875 9.50004 1.1875C10.4449 1.1875 11.351 1.56283 12.0191 2.23093C12.6872 2.89903 13.0625 3.80517 13.0625 4.75C13.0625 5.69483 12.6872 6.60097 12.0191 7.26907C11.351 7.93717 10.4449 8.3125 9.50004 8.3125C8.5552 8.3125 7.64907 7.93717 6.98097 7.26907C6.31287 6.60097 5.93754 5.69483 5.93754 4.75ZM2.96958 15.9165C2.99627 14.2021 3.69604 12.567 4.91784 11.364C6.13963 10.1611 7.78545 9.4869 9.50004 9.4869C11.2146 9.4869 12.8604 10.1611 14.0822 11.364C15.304 12.567 16.0038 14.2021 16.0305 15.9165C16.0326 16.0319 16.0009 16.1454 15.9395 16.2431C15.878 16.3408 15.7894 16.4185 15.6845 16.4667C13.7443 17.3563 11.6345 17.8154 9.50004 17.8125C7.29445 17.8125 5.19891 17.3312 3.31554 16.4667C3.21063 16.4185 3.12203 16.3408 3.06059 16.2431C2.99914 16.1454 2.96752 16.0319 2.96958 15.9165Z" fill="white"/>
</svg>
