<!DOCTYPE svg PUBLIC "-//W3C//DTD SVG 1.1//EN" "http://www.w3.org/Graphics/SVG/1.1/DTD/svg11.dtd">
<!-- Uploaded to: SVG Repo, www.svgrepo.com, Transformed by: SVG Repo Mixer Tools -->
<svg fill="#ffffff" version="1.1" id="Capa_1" xmlns="http://www.w3.org/2000/svg" xmlns:xlink="http://www.w3.org/1999/xlink" viewBox="0 0 460 460" xml:space="preserve" width="800px" height="800px" stroke="#ffffff">
<g id="SVGRepo_bgCarrier" stroke-width="0"/>
<g id="SVGRepo_tracerCarrier" stroke-linecap="round" stroke-linejoin="round"/>
<g id="SVGRepo_iconCarrier"> <g id="XMLID_28_"> <path id="XMLID_29_" d="M187.433,270.696c-10.714,4.946-20.899,10.838-30.433,17.592V445h97V334.319 C220.917,328.679,194.521,303.488,187.433,270.696z"/> <path id="XMLID_30_" d="M268.065,305.528c26.536,0,48.525-19.752,52.029-45.363c-16.547-4.625-33.996-7.101-52.029-7.101 c-18.032,0-35.482,2.476-52.028,7.101C219.541,285.776,241.53,305.528,268.065,305.528z"/> <path id="XMLID_31_" d="M348.698,270.696c-6.955,32.172-32.491,57.038-64.698,63.292V445h176 C460,367.386,414.414,301.031,348.698,270.696z"/> <path id="XMLID_71_" d="M269,119v30H168.422c12.868,42.846,52.607,74.064,99.643,74.064c57.455,0,104.032-46.577,104.032-104.032 S325.52,15,268.065,15c-47.013,0-86.735,31.188-99.624,74H108v30H269z"/> <rect id="XMLID_85_" x="30" y="253" width="67" height="30"/> <polygon id="XMLID_86_" points="127,283 97,283 97,313 30,313 30,283 0,283 0,445 127,445 "/> </g> </g>
</svg>