<svg width="27" height="19" viewBox="0 0 27 19" fill="none" xmlns="http://www.w3.org/2000/svg">
<path d="M6.17782e-05 18C6.18024e-05 18.5523 0.447777 19 1.00006 19C1.55235 19 2.00006 18.5523 2.00006 18L6.17782e-05 18ZM6.10352e-05 1L6.17782e-05 18L2.00006 18L2.00006 1L6.10352e-05 1Z" fill="white"/>
<path d="M1.00006 1L8.39137 1" stroke="white" stroke-width="2" stroke-linecap="round"/>
<path d="M8.39136 1L8.39136 6.17391" stroke="white" stroke-width="2" stroke-linecap="round"/>
<path d="M8.39136 12.8259L8.39136 17.9998" stroke="white" stroke-width="2" stroke-linecap="round"/>
<path d="M1.00006 18L8.39137 18" stroke="white" stroke-width="2" stroke-linecap="round"/>
<path d="M25.3914 1V18" stroke="white" stroke-width="2" stroke-linecap="round"/>
<path d="M25.3914 1L18.0001 1" stroke="white" stroke-width="2" stroke-linecap="round"/>
<path d="M18.0001 1V6.17391" stroke="white" stroke-width="2" stroke-linecap="round"/>
<path d="M18.0001 12.8259V17.9998" stroke="white" stroke-width="2" stroke-linecap="round"/>
<path d="M25.3914 18H18.0001" stroke="white" stroke-width="2" stroke-linecap="round"/>
<path d="M8.39136 6.17407L18.0001 6.17407" stroke="white" stroke-width="2" stroke-linecap="round"/>
<path d="M8.39136 12.8259L18.0001 12.8259" stroke="white" stroke-width="2" stroke-linecap="round"/>
</svg>
